<?xml version="1.0" encoding="UTF-8" standalone="no"?>
<!-- Created with Inkscape (http://www.inkscape.org/) -->

<svg
   width="18.521mm"
   height="12.435mm"
   viewBox="0 0 18.521 12.435"
   version="1.1"
   id="svg11070"
   inkscape:version="1.2.2 (b0a8486541, 2022-12-01)"
   sodipodi:docname="gl_es.svg"
   xml:space="preserve"
   xmlns:inkscape="http://www.inkscape.org/namespaces/inkscape"
   xmlns:sodipodi="http://sodipodi.sourceforge.net/DTD/sodipodi-0.dtd"
   xmlns:xlink="http://www.w3.org/1999/xlink"
   xmlns="http://www.w3.org/2000/svg"
   xmlns:svg="http://www.w3.org/2000/svg"><sodipodi:namedview
     id="namedview11072"
     pagecolor="#ffffff"
     bordercolor="#000000"
     borderopacity="0.25"
     inkscape:showpageshadow="2"
     inkscape:pageopacity="0.0"
     inkscape:pagecheckerboard="0"
     inkscape:deskcolor="#d1d1d1"
     inkscape:document-units="mm"
     showgrid="false"
     inkscape:zoom="8"
     inkscape:cx="40.0625"
     inkscape:cy="11.6875"
     inkscape:window-width="1706"
     inkscape:window-height="1243"
     inkscape:window-x="3330"
     inkscape:window-y="120"
     inkscape:window-maximized="0"
     inkscape:current-layer="layer1" /><defs
     id="defs11067"><clipPath
       clipPathUnits="userSpaceOnUse"
       id="clipPath1901"><path
         id="path1903"
         d="M 1727.4838,-30.750004 V 569.25 h 1000 V -30.750004 Z"
         inkscape:connector-curvature="0"
         style="fill:#00247d;stroke-width:20" /></clipPath><clipPath
       clipPathUnits="userSpaceOnUse"
       id="clipPath1897"><path
         id="path1899"
         d="M 1727.4838,-30.750004 V 569.25 h 1000 V -30.750004 Z"
         inkscape:connector-curvature="0"
         style="fill:#00247d;stroke-width:20" /></clipPath><filter
       style="color-interpolation-filters:sRGB"
       inkscape:label="Lightness-Contrast"
       id="filter11928"
       x="-0.0086460104"
       y="-0.014749691"
       width="1.017292"
       height="1.0147496"><feColorMatrix
         values="0.63 0 0 0 0.185 0 0.63 0 0 0.185 0 0 0.63 0 0.185 0 0 0 1 0"
         id="feColorMatrix11926" /></filter><filter
       style="color-interpolation-filters:sRGB"
       inkscape:label="Lightness-Contrast"
       id="filter11912"
       x="0"
       y="0"
       width="1"
       height="1.004017"><feColorMatrix
         values="0.63 0 0 0 0.185 0 0.63 0 0 0.185 0 0 0.63 0 0.185 0 0 0 1 0"
         id="feColorMatrix11910" /></filter><filter
       style="color-interpolation-filters:sRGB"
       inkscape:label="Lightness-Contrast"
       id="filter11904"
       x="0"
       y="-0.0031773455"
       width="1.0010136"
       height="1.0031773"><feColorMatrix
         values="0.63 0 0 0 0.185 0 0.63 0 0 0.185 0 0 0.63 0 0.185 0 0 0 1 0"
         id="feColorMatrix11902" /></filter><radialGradient
       gradientTransform="matrix(0.185743,0.047185,-0.04532,0.186354,233.79812,198.76959)"
       r="25.858999"
       cy="103.66"
       cx="842.31"
       gradientUnits="userSpaceOnUse"
       xlink:href="#lg"
       id="rg1" /><linearGradient
       id="lg"><stop
         id="stop17085"
         offset="0"
         stop-color="#fff" /><stop
         id="stop17087"
         offset="1"
         stop-color="#f15770" /></linearGradient><radialGradient
       gradientTransform="matrix(-0.176418,-0.070669,0.065152,-0.163915,430.54435,377.87561)"
       r="25.858999"
       cy="550.46002"
       cx="651.52002"
       gradientUnits="userSpaceOnUse"
       xlink:href="#lg"
       id="rg2" /><radialGradient
       gradientTransform="matrix(0.098907,0.003695,-0.004498,0.194304,442.36222,123.30418)"
       r="25.858999"
       cy="740.37"
       cx="380.84"
       gradientUnits="userSpaceOnUse"
       xlink:href="#lg"
       id="rg3" /><filter
       style="color-interpolation-filters:sRGB"
       inkscape:label="Lightness-Contrast"
       id="filter11916"
       x="-0.0033178341"
       y="-0.0017783646"
       width="1.0033178"
       height="1.0017784"><feColorMatrix
         values="0.63 0 0 0 0.185 0 0.63 0 0 0.185 0 0 0.63 0 0.185 0 0 0 1 0"
         id="feColorMatrix11914" /></filter><filter
       style="color-interpolation-filters:sRGB"
       inkscape:label="Lightness-Contrast"
       id="filter11924"
       x="-0.0028595249"
       y="0"
       width="1.0028595"
       height="1"><feColorMatrix
         values="0.63 0 0 0 0.185 0 0.63 0 0 0.185 0 0 0.63 0 0.185 0 0 0 1 0"
         id="feColorMatrix11922" /></filter><filter
       style="color-interpolation-filters:sRGB"
       inkscape:label="Lightness-Contrast"
       id="filter11908"
       x="-0.0021827673"
       y="-0.00013561382"
       width="1.0021828"
       height="1.0001355"><feColorMatrix
         values="0.63 0 0 0 0.185 0 0.63 0 0 0.185 0 0 0.63 0 0.185 0 0 0 1 0"
         id="feColorMatrix11906" /></filter><filter
       style="color-interpolation-filters:sRGB"
       inkscape:label="Lightness-Contrast"
       id="filter11920"
       x="0"
       y="0"
       width="1"
       height="1"><feColorMatrix
         values="0.63 0 0 0 0.185 0 0.63 0 0 0.185 0 0 0.63 0 0.185 0 0 0 1 0"
         id="feColorMatrix11918" /></filter><filter
       style="color-interpolation-filters:sRGB"
       inkscape:label="Lightness-Contrast"
       id="filter11932"
       x="-0.0041075991"
       y="-0.00089971506"
       width="1.0092005"
       height="1.005335"><feColorMatrix
         values="0.63 0 0 0 0.185 0 0.63 0 0 0.185 0 0 0.63 0 0.185 0 0 0 1 0"
         id="feColorMatrix11930" /></filter><filter
       style="color-interpolation-filters:sRGB"
       inkscape:label="Lightness-Contrast"
       id="filter11964"
       x="0"
       y="0"
       width="1"
       height="1"><feColorMatrix
         values="0.63 0 0 0 0.185 0 0.63 0 0 0.185 0 0 0.63 0 0.185 0 0 0 1 0"
         id="feColorMatrix11962" /></filter><filter
       style="color-interpolation-filters:sRGB"
       inkscape:label="Lightness-Contrast"
       id="filter11988"
       x="0"
       y="0"
       width="1"
       height="1"><feColorMatrix
         values="0.63 0 0 0 0.185 0 0.63 0 0 0.185 0 0 0.63 0 0.185 0 0 0 1 0"
         id="feColorMatrix11986" /></filter><filter
       style="color-interpolation-filters:sRGB"
       inkscape:label="Lightness-Contrast"
       id="filter11984"
       x="0"
       y="0"
       width="1"
       height="1"><feColorMatrix
         values="0.63 0 0 0 0.185 0 0.63 0 0 0.185 0 0 0.63 0 0.185 0 0 0 1 0"
         id="feColorMatrix11982" /></filter><filter
       style="color-interpolation-filters:sRGB"
       inkscape:label="Lightness-Contrast"
       id="filter11968"
       x="0"
       y="0"
       width="1"
       height="1"><feColorMatrix
         values="0.63 0 0 0 0.185 0 0.63 0 0 0.185 0 0 0.63 0 0.185 0 0 0 1 0"
         id="feColorMatrix11966" /></filter><filter
       style="color-interpolation-filters:sRGB"
       inkscape:label="Lightness-Contrast"
       id="filter11976"
       x="0"
       y="0"
       width="1"
       height="1"><feColorMatrix
         values="0.63 0 0 0 0.185 0 0.63 0 0 0.185 0 0 0.63 0 0.185 0 0 0 1 0"
         id="feColorMatrix11974" /></filter><filter
       style="color-interpolation-filters:sRGB"
       inkscape:label="Lightness-Contrast"
       id="filter11972"
       x="0"
       y="0"
       width="1"
       height="1"><feColorMatrix
         values="0.63 0 0 0 0.185 0 0.63 0 0 0.185 0 0 0.63 0 0.185 0 0 0 1 0"
         id="feColorMatrix11970" /></filter><filter
       style="color-interpolation-filters:sRGB"
       inkscape:label="Lightness-Contrast"
       id="filter11980"
       x="0"
       y="0"
       width="1"
       height="1"><feColorMatrix
         values="0.63 0 0 0 0.185 0 0.63 0 0 0.185 0 0 0.63 0 0.185 0 0 0 1 0"
         id="feColorMatrix11978" /></filter><filter
       style="color-interpolation-filters:sRGB"
       inkscape:label="Lightness-Contrast"
       id="filter11940"
       x="-0.0032501293"
       y="-0.00663384"
       width="1.006391"
       height="1.0133005"><feColorMatrix
         values="0.63 0 0 0 0.185 0 0.63 0 0 0.185 0 0 0.63 0 0.185 0 0 0 1 0"
         id="feColorMatrix11938" /></filter><filter
       style="color-interpolation-filters:sRGB"
       inkscape:label="Lightness-Contrast"
       id="filter11944"
       x="0"
       y="0"
       width="1"
       height="1"><feColorMatrix
         values="0.63 0 0 0 0.185 0 0.63 0 0 0.185 0 0 0.63 0 0.185 0 0 0 1 0"
         id="feColorMatrix11942" /></filter><filter
       style="color-interpolation-filters:sRGB"
       inkscape:label="Lightness-Contrast"
       id="filter11956"
       x="-0.11979167"
       y="-0.11979167"
       width="1.2395833"
       height="1.2395833"><feColorMatrix
         values="0.63 0 0 0 0.185 0 0.63 0 0 0.185 0 0 0.63 0 0.185 0 0 0 1 0"
         id="feColorMatrix11954" /></filter><filter
       style="color-interpolation-filters:sRGB"
       inkscape:label="Lightness-Contrast"
       id="filter11952"
       x="-0.04073536"
       y="-0.027788086"
       width="1.0815914"
       height="1.0555762"><feColorMatrix
         values="0.63 0 0 0 0.185 0 0.63 0 0 0.185 0 0 0.63 0 0.185 0 0 0 1 0"
         id="feColorMatrix11950" /></filter><filter
       style="color-interpolation-filters:sRGB"
       inkscape:label="Lightness-Contrast"
       id="filter11948"
       x="-0.0033528646"
       y="0"
       width="1.0123858"
       height="1"><feColorMatrix
         values="0.63 0 0 0 0.185 0 0.63 0 0 0.185 0 0 0.63 0 0.185 0 0 0 1 0"
         id="feColorMatrix11946" /></filter><filter
       style="color-interpolation-filters:sRGB"
       inkscape:label="Lightness-Contrast"
       id="filter11936"
       x="-0.00043036827"
       y="-0.0021713185"
       width="1.0011829"
       height="1.0062945"><feColorMatrix
         values="0.63 0 0 0 0.185 0 0.63 0 0 0.185 0 0 0.63 0 0.185 0 0 0 1 0"
         id="feColorMatrix11934" /></filter><radialGradient
       r="16.534149"
       cy="308.26917"
       cx="447.41757"
       gradientUnits="userSpaceOnUse"
       xlink:href="#rgbase"
       id="rg1-5" /><radialGradient
       id="rgbase"><stop
         id="stop16451"
         offset="0.2165"
         stop-color="#f9f0aa" /><stop
         id="stop16453"
         offset="1"
         stop-color="#b07e09" /></radialGradient><radialGradient
       r="10.9114"
       cy="312.99521"
       cx="451.55807"
       gradientUnits="userSpaceOnUse"
       xlink:href="#rgbase"
       id="rg2-0" /><radialGradient
       id="radialGradient36786"><stop
         id="stop36782"
         offset="0.2165"
         stop-color="#f9f0aa" /><stop
         id="stop36784"
         offset="1"
         stop-color="#b07e09" /></radialGradient><radialGradient
       r="9.7796001"
       cy="308.64279"
       cx="454.11008"
       gradientUnits="userSpaceOnUse"
       xlink:href="#rgbase"
       id="rg3-3" /><radialGradient
       id="radialGradient36793"><stop
         id="stop36789"
         offset="0.2165"
         stop-color="#f9f0aa" /><stop
         id="stop36791"
         offset="1"
         stop-color="#b07e09" /></radialGradient><radialGradient
       r="17.35437"
       cy="307.05652"
       cx="458.39038"
       gradientUnits="userSpaceOnUse"
       xlink:href="#rgbase"
       id="rg4" /><radialGradient
       id="radialGradient36800"><stop
         id="stop36796"
         offset="0.2165"
         stop-color="#f9f0aa" /><stop
         id="stop36798"
         offset="1"
         stop-color="#b07e09" /></radialGradient><linearGradient
       y2="231.9632"
       x2="472.35657"
       y1="259.17123"
       x1="473.9057"
       gradientUnits="userSpaceOnUse"
       id="lg1"><stop
         id="stop16471"
         offset="0.2165"
         stop-opacity="0"
         stop-color="#b07e09" /><stop
         id="stop16473"
         offset="1"
         stop-color="#b07e09" /></linearGradient><linearGradient
       y2="326.5834"
       x2="485.49466"
       y1="296.65619"
       x1="483.12616"
       gradientUnits="userSpaceOnUse"
       id="lg2"><stop
         id="stop16476"
         offset="0.2165"
         stop-opacity="0"
         stop-color="#b07e09" /><stop
         id="stop16478"
         offset="1"
         stop-color="#b07e09" /></linearGradient><radialGradient
       r="13.01791"
       cy="252.36295"
       cx="445.97552"
       gradientUnits="userSpaceOnUse"
       xlink:href="#rgbase"
       id="rg5" /><radialGradient
       id="radialGradient36813"><stop
         id="stop36809"
         offset="0.2165"
         stop-color="#f9f0aa" /><stop
         id="stop36811"
         offset="1"
         stop-color="#b07e09" /></radialGradient><linearGradient
       y2="240.57625"
       x2="455.36642"
       y1="249.52251"
       x1="451.54059"
       gradientUnits="userSpaceOnUse"
       id="lg3"><stop
         id="stop16481"
         offset="0.2165"
         stop-color="#f9f0aa" /><stop
         id="stop16483"
         offset="1"
         stop-color="#b07e09" /></linearGradient><linearGradient
       y2="270.44556"
       x2="475.92896"
       y1="237.24661"
       x1="473.31357"
       gradientUnits="userSpaceOnUse"
       id="lg4"><stop
         id="stop16486"
         offset="0.2165"
         stop-color="#f9f0aa" /><stop
         id="stop16488"
         offset="1"
         stop-color="#b07e09" /></linearGradient></defs><g
     inkscape:label="Capa 1"
     inkscape:groupmode="layer"
     id="layer1"
     transform="translate(-64.955134,-133.02672)"><rect
       y="133.02557"
       x="64.957176"
       height="12.437264"
       width="18.520775"
       id="rect733"
       style="font-size:12px;fill:#ffffff;fill-opacity:1;fill-rule:evenodd;stroke-width:0.0309815pt" /><path
       id="path556"
       d="M 83.477954,143.65247 67.612746,133.02559 h -2.65557 v 1.77043 l 15.924672,10.66683 h 2.596106 v -1.81038"
       style="font-size:12px;fill:#3bafda;stroke-width:0.0309815;fill-opacity:1" /><path
       id="path558"
       d="m 74.110177,142.51553 c -1.869759,0 -1.809039,-1.75922 -1.809039,-1.75922 v -2.70011 h 3.618004 v 2.70011 c 0,0 0.06333,1.75922 -1.808965,1.75922"
       style="font-size:12px;fill:#4758a9;fill-opacity:1;stroke-width:0.0310944" /><path
       id="path559"
       d="m 74.110177,142.51553 c -1.869759,0 -1.809039,-1.75922 -1.809039,-1.75922 v -2.70011 h 3.618004 v 2.70011 c 0,0 0.06333,1.75922 -1.808965,1.75922 z"
       style="font-size:12px;fill:none;stroke:#000000;stroke-width:0.0312934" /><path
       id="path560"
       d="m 74.094269,136.35687 c 0,0 -0.385752,-0.18768 -0.750667,0.0887 0,0 -0.656637,-0.0948 -0.704959,0.53423 -0.0019,0.0255 -0.0059,0.0724 0.0058,0.086 0.01173,0.0137 0.02345,0.0391 0.02345,0.0566 0,0.0176 0.01173,0.0274 0.01568,0.0352 0.0039,0.008 0.01367,0.0196 0.01561,0.0528 0.0019,0.0332 -0.0039,0.0489 0.02741,0.0821 0.03122,0.0332 0.03316,0.12906 0.03316,0.15639 0,0.0273 0.01957,0.10359 0.03324,0.11928 0.01367,0.0156 0.03712,0.0547 0.03712,0.0879 0,0.0332 0.01367,0.1251 0.0078,0.14848 -0.0058,0.0234 0.03518,0.0528 0.07237,0.0645 0.03712,0.0117 0.498453,0.16222 1.17085,0.1505 0.67247,-0.0117 0.914602,-0.0475 1.192433,-0.14855 0.04294,-0.0156 0.05079,-0.0508 0.0469,-0.0704 -0.004,-0.0195 0,-0.082 0.01172,-0.0977 0.01173,-0.0156 0.08992,-0.1407 0.07424,-0.16416 -0.01561,-0.0234 -0.01561,-0.0743 0,-0.0938 0.01568,-0.0196 0.0646,-0.1136 0.07424,-0.15251 0.0097,-0.039 0.01098,-0.0849 0.0289,-0.0985 0.018,-0.0136 0.02405,-0.0577 0.02748,-0.0668 0.0035,-0.009 0.01658,-0.0379 0.0348,-0.051 0,0 0.03391,-0.15893 0.01299,-0.23706 -0.02076,-0.0782 -0.138093,-0.41443 -0.615037,-0.344 0,0 -0.354459,-0.26849 -0.875691,-0.13817"
       style="font-size:12px;fill:#ed5565;fill-opacity:1;stroke-width:0.0310944" /><path
       id="path561"
       d="m 74.094269,136.35687 c 0,0 -0.385752,-0.18768 -0.750667,0.0887 0,0 -0.656637,-0.0948 -0.704959,0.53423 -0.0019,0.0255 -0.0059,0.0724 0.0058,0.086 0.01173,0.0137 0.02345,0.0391 0.02345,0.0566 0,0.0176 0.01173,0.0274 0.01568,0.0352 0.0039,0.008 0.01367,0.0196 0.01561,0.0528 0.0019,0.0332 -0.0039,0.0489 0.02741,0.0821 0.03122,0.0332 0.03316,0.12906 0.03316,0.15639 0,0.0273 0.01957,0.10359 0.03324,0.11928 0.01367,0.0156 0.03712,0.0547 0.03712,0.0879 0,0.0332 0.01367,0.1251 0.0078,0.14848 -0.0058,0.0234 0.03518,0.0528 0.07237,0.0645 0.03712,0.0117 0.498453,0.16222 1.17085,0.1505 0.67247,-0.0117 0.914602,-0.0475 1.192433,-0.14855 0.04294,-0.0156 0.05079,-0.0508 0.0469,-0.0704 -0.004,-0.0195 0,-0.082 0.01172,-0.0977 0.01173,-0.0156 0.08992,-0.1407 0.07424,-0.16416 -0.01561,-0.0234 -0.01561,-0.0743 0,-0.0938 0.01568,-0.0196 0.0646,-0.1136 0.07424,-0.15251 0.0097,-0.039 0.01098,-0.0849 0.0289,-0.0985 0.018,-0.0136 0.02405,-0.0577 0.02748,-0.0668 0.0035,-0.009 0.01658,-0.0379 0.0348,-0.051 0,0 0.03391,-0.15893 0.01299,-0.23706 -0.02076,-0.0782 -0.138093,-0.41443 -0.615037,-0.344 0,0 -0.354459,-0.26849 -0.875691,-0.13817 z"
       style="font-size:12px;fill:none;stroke:#000000;stroke-width:0.0469027" /><path
       id="path562"
       d="m 75.38484,137.5278 c -1.464738,-0.46395 -2.593614,-0.023 -2.593614,-0.023 0,0 0.01046,0.0512 0.02345,0.0668 0.01307,0.0156 0.03129,0.0521 0.03129,0.0795 0,0.0273 0.0026,0.0665 0.0026,0.0873 0,0.0208 -0.01598,0.11427 0.06759,0.11315 0,0 1.018043,-0.39935 2.343716,0.0205 0,0 0.0363,-0.0326 0.03764,-0.0795 0.0013,-0.0469 0.009,-0.0964 0.02733,-0.12248 0.01822,-0.0261 0.0599,-0.10748 0.0599,-0.14235"
       style="font-size:12px;fill:#ffce54;fill-opacity:1;stroke-width:0.0310944" /><path
       id="path563"
       d="m 74.026828,139.9692 h -0.63595 c 0,0 -0.06259,0.56813 0.427427,0.74021 v 0.0521 h 0.104262 v 0.0677 c 0,0 -0.179844,0.16154 -0.02353,0.34661 v 0.0574 h 0.02614 v 0.0912 h 0.0286 v 0.14848 c 0,0 -0.02345,0.53042 -0.543414,0.7845 v 0.0313 h 1.388335 v -0.0313 c -0.519888,-0.25408 -0.543414,-0.7845 -0.543414,-0.7845 v -0.14848 h 0.0286 v -0.0912 h 0.02607 v -0.0574 c 0.156392,-0.18507 -0.02345,-0.34661 -0.02345,-0.34661 v -0.0677 h 0.104261 v -0.0521 c 0.490013,-0.17208 0.427427,-0.74021 0.427427,-0.74021 h -0.791446"
       style="font-size:12px;fill:#ffce54;fill-opacity:1;stroke-width:0.0310944" /><path
       id="path564"
       d="m 74.026828,139.9692 h -0.63595 c 0,0 -0.06259,0.56813 0.427427,0.74021 v 0.0521 h 0.104262 v 0.0677 c 0,0 -0.179844,0.16154 -0.02353,0.34661 v 0.0574 h 0.02614 v 0.0912 h 0.0286 v 0.14848 c 0,0 -0.02345,0.53042 -0.543414,0.7845 v 0.0313 h 1.388335 v -0.0313 c -0.519888,-0.25408 -0.543414,-0.7845 -0.543414,-0.7845 v -0.14848 h 0.0286 v -0.0912 h 0.02607 v -0.0574 c 0.156392,-0.18507 -0.02345,-0.34661 -0.02345,-0.34661 v -0.0677 h 0.104261 v -0.0521 c 0.490013,-0.17208 0.427427,-0.74021 0.427427,-0.74021 h -0.791446 z"
       style="font-size:12px;fill:none;stroke:#000000;stroke-width:0.0312934" /><path
       id="path565"
       d="m 73.797393,140.70157 h 0.613843 m -0.592931,0.0469 h 0.572094 m -0.467832,0.0782 h 0.359686 m -0.383212,0.35573 h 0.410547 m -0.383138,0.0437 h 0.358417 m -0.358417,0.0887 h 0.357073 m -0.575977,0.71997 h 0.793611 m -1.017743,0.18372 h 1.24322 m -1.290123,0.0273 h 1.338295"
       style="font-size:12px;fill:none;stroke:#000000;stroke-width:0.007842" /><path
       id="path566"
       d="m 74.109879,139.93566 c 0.223908,0 0.405469,-0.18156 0.405469,-0.40547 0,-0.2239 -0.181561,-0.40546 -0.405469,-0.40546 -0.223909,0 -0.40547,0.18156 -0.40547,0.40546 0,0.22391 0.181561,0.40547 0.40547,0.40547"
       style="font-size:12px;fill:#cccccc;fill-opacity:1;stroke-width:0.0310944" /><path
       id="path567"
       d="m 74.109879,139.93566 c 0.223908,0 0.405469,-0.18156 0.405469,-0.40547 0,-0.2239 -0.181561,-0.40546 -0.405469,-0.40546 -0.223909,0 -0.40547,0.18156 -0.40547,0.40546 0,0.22391 0.181561,0.40547 0.40547,0.40547 z"
       style="font-size:12px;fill:none;stroke:#000000;stroke-width:0.0312934" /><path
       id="path568"
       d="m 73.166373,138.74428 h -0.252811 v -0.25289 h -0.224133 v 0.25289 h -0.252811 v 0.22405 h 0.252811 v 0.25282 h 0.224133 v -0.25282 h 0.252811 v -0.22405"
       style="font-size:12px;fill:#cccccc;fill-opacity:1;stroke-width:0.0310944" /><path
       id="path569"
       d="m 73.166373,138.74428 h -0.252811 v -0.25289 h -0.224133 v 0.25289 h -0.252811 v 0.22405 h 0.252811 v 0.25282 h 0.224133 v -0.25282 h 0.252811 v -0.22405"
       style="font-size:12px;fill:none;stroke:#000000;stroke-width:0.0312934" /><path
       id="path570"
       d="m 75.793894,138.74428 h -0.252811 v -0.25289 h -0.224207 v 0.25289 h -0.252737 v 0.22405 h 0.252737 v 0.25282 h 0.224207 v -0.25282 h 0.252811 v -0.22405"
       style="font-size:12px;fill:#cccccc;fill-opacity:1;stroke-width:0.0310944" /><path
       id="path571"
       d="m 75.793894,138.74428 h -0.252811 v -0.25289 h -0.224207 v 0.25289 h -0.252737 v 0.22405 h 0.252737 v 0.25282 h 0.224207 v -0.25282 h 0.252811 v -0.22405"
       style="font-size:12px;fill:none;stroke:#000000;stroke-width:0.0312934" /><path
       id="path572"
       d="m 74.462396,138.42656 h -0.252812 v -0.25281 h -0.224132 v 0.25281 h -0.252811 v 0.22414 h 0.252811 v 0.25281 h 0.224132 v -0.25281 h 0.252812 v -0.22414"
       style="font-size:12px;fill:#cccccc;fill-opacity:1;stroke-width:0.0310944" /><path
       id="path573"
       d="m 74.462396,138.42656 h -0.252812 v -0.25281 h -0.224132 v 0.25281 h -0.252811 v 0.22414 h 0.252811 v 0.25281 h 0.224132 v -0.25281 h 0.252812 v -0.22414"
       style="font-size:12px;fill:none;stroke:#000000;stroke-width:0.0312934" /><path
       id="path574"
       d="m 73.166373,139.83887 h -0.252811 v -0.25281 h -0.224133 v 0.25281 h -0.252811 v 0.22413 h 0.252811 v 0.25281 h 0.224133 V 140.063 h 0.252811 v -0.22413"
       style="font-size:12px;fill:#cccccc;fill-opacity:1;stroke-width:0.0310944" /><path
       id="path575"
       d="m 73.166373,139.83887 h -0.252811 v -0.25281 h -0.224133 v 0.25281 h -0.252811 v 0.22413 h 0.252811 v 0.25281 h 0.224133 V 140.063 h 0.252811 v -0.22413"
       style="font-size:12px;fill:none;stroke:#000000;stroke-width:0.0312934" /><path
       id="path576"
       d="m 75.793894,139.83887 h -0.252811 v -0.25281 h -0.224207 v 0.25281 h -0.252737 v 0.22413 h 0.252737 v 0.25281 h 0.224207 V 140.063 h 0.252811 v -0.22413"
       style="font-size:12px;fill:#cccccc;fill-opacity:1;stroke-width:0.0310944" /><path
       id="path577"
       d="m 75.793894,139.83887 h -0.252811 v -0.25281 h -0.224207 v 0.25281 h -0.252737 v 0.22413 h 0.252737 v 0.25281 h 0.224207 V 140.063 h 0.252811 v -0.22413"
       style="font-size:12px;fill:none;stroke:#000000;stroke-width:0.0312934" /><path
       id="path578"
       d="m 73.166373,140.94429 h -0.252811 v -0.25288 h -0.224133 v 0.25288 h -0.252811 v 0.22414 h 0.252811 v 0.25273 h 0.224133 v -0.25273 h 0.252811 v -0.22414"
       style="font-size:12px;fill:#cccccc;fill-opacity:1;stroke-width:0.0310944" /><path
       id="path579"
       d="m 73.166373,140.94429 h -0.252811 v -0.25288 h -0.224133 v 0.25288 h -0.252811 v 0.22414 h 0.252811 v 0.25273 h 0.224133 v -0.25273 h 0.252811 v -0.22414"
       style="font-size:12px;fill:none;stroke:#000000;stroke-width:0.0312934" /><path
       id="path580"
       d="m 75.793894,140.94429 h -0.252811 v -0.25288 h -0.224207 v 0.25288 h -0.252737 v 0.22414 h 0.252737 v 0.25273 h 0.224207 v -0.25273 h 0.252811 v -0.22414"
       style="font-size:12px;fill:#cccccc;fill-opacity:1;stroke-width:0.0310944" /><path
       id="path581"
       d="m 75.793894,140.94429 h -0.252811 v -0.25288 h -0.224207 v 0.25288 h -0.252737 v 0.22414 h 0.252737 v 0.25273 h 0.224207 v -0.25273 h 0.252811 v -0.22414"
       style="font-size:12px;fill:none;stroke:#000000;stroke-width:0.0312934" /><path
       id="path582"
       d="m 74.106592,135.81563 c 0.13436,0 0.243327,-0.1089 0.243327,-0.24326 0,-0.13436 -0.108967,-0.24325 -0.243327,-0.24325 -0.134359,0 -0.243251,0.10889 -0.243251,0.24325 0,0.13436 0.108892,0.24326 0.243251,0.24326"
       style="font-size:12px;fill:#4758a9;fill-opacity:1;stroke-width:0.0310944" /><path
       id="path583"
       d="m 74.106592,135.81563 c 0.13436,0 0.243327,-0.1089 0.243327,-0.24326 0,-0.13436 -0.108967,-0.24325 -0.243327,-0.24325 -0.134359,0 -0.243251,0.10889 -0.243251,0.24325 0,0.13436 0.108892,0.24326 0.243251,0.24326 z"
       style="font-size:12px;fill:none;stroke:#000000;stroke-width:0.0312934" /><path
       id="path584"
       d="m 74.333413,135.52936 h -0.199411 v -0.3225 h 0.07618 v -0.0645 h -0.07618 v -0.0762 h -0.06453 v 0.0762 h -0.07626 v 0.0645 h 0.07626 v 0.3225 h -0.189628 v 0.043 h 0.189628 v 0.002 h 0.06453 v -0.002 h 0.199411 v -0.043"
       style="font-size:12px;fill:#ffcc00;fill-opacity:1;stroke-width:0.0310944" /><path
       id="path585"
       d="m 74.333413,135.52936 h -0.199411 v -0.3225 h 0.07618 v -0.0645 h -0.07618 v -0.0762 h -0.06453 v 0.0762 h -0.07626 v 0.0645 h 0.07626 v 0.3225 h -0.189628 v 0.043 h 0.189628 v 0.002 h 0.06453 v -0.002 h 0.199411 v -0.043"
       style="font-size:12px;fill:#ffce54;fill-opacity:1;stroke:#000000;stroke-width:0.0156093" /><path
       id="path586"
       d="m 73.13254,136.10668 c 0,0 0.179844,-0.0208 0.28403,0.0208 0,0 -0.119422,0.13586 -0.0938,0.31533 0.01307,0.0913 0.03129,0.13816 0.05736,0.18245 0.02607,0.0444 0.05467,0.13556 0.03906,0.20853 h 0.03391 c 0,0 0.03391,-0.14855 -0.02345,-0.23198 -0.05736,-0.0833 -0.08604,-0.19806 -0.02868,-0.31794 0.05728,-0.11987 0.140708,-0.16677 0.140708,-0.16677 0.09642,0.0391 0.299789,0.003 0.357073,-0.0391 0.05728,-0.0418 0.08596,-0.099 -0.02084,-0.10426 -0.106801,-0.005 -0.289259,-0.003 -0.414357,0.0913 0,0 -0.0652,-0.0757 -0.390981,-0.0391 -0.325779,0.0365 -0.561263,0.17566 -0.633335,0.46917 -0.03645,0.14855 0.101647,0.46126 0.22936,0.53684 0,0 -0.0039,-0.0508 0.0091,-0.0873 0,0 -0.217635,-0.24369 -0.152434,-0.47044 0.06513,-0.22675 0.325779,-0.3753 0.60727,-0.36745"
       style="font-size:12px;fill:#ffcc00;fill-opacity:1;stroke-width:0.0310944" /><path
       id="path587"
       d="m 73.13254,136.10668 c 0,0 0.179844,-0.0208 0.28403,0.0208 0,0 -0.119422,0.13586 -0.0938,0.31533 0.01307,0.0913 0.03129,0.13816 0.05736,0.18245 0.02607,0.0444 0.05467,0.13556 0.03906,0.20853 h 0.03391 c 0,0 0.03391,-0.14855 -0.02345,-0.23198 -0.05736,-0.0833 -0.08604,-0.19806 -0.02868,-0.31794 0.05728,-0.11987 0.140708,-0.16677 0.140708,-0.16677 0.09642,0.0391 0.299789,0.003 0.357073,-0.0391 0.05728,-0.0418 0.08596,-0.099 -0.02084,-0.10426 -0.106801,-0.005 -0.289259,-0.003 -0.414357,0.0913 0,0 -0.0652,-0.0757 -0.390981,-0.0391 -0.325779,0.0365 -0.561263,0.17566 -0.633335,0.46917 -0.03645,0.14855 0.101647,0.46126 0.22936,0.53684 0,0 -0.0039,-0.0508 0.0091,-0.0873 0,0 -0.217635,-0.24369 -0.152434,-0.47044 0.06513,-0.22675 0.325779,-0.3753 0.60727,-0.36745 z"
       style="font-size:12px;fill:#ffce54;fill-opacity:1;stroke:#000000;stroke-width:0.0203145" /><path
       id="path588"
       d="m 73.744814,136.06179 c 0.05631,-0.005 0.101424,-0.0143 0.100826,-0.022 -5.97e-4,-0.008 -0.04675,-0.0101 -0.103066,-0.006 -0.05631,0.005 -0.101423,0.0144 -0.100826,0.022 5.97e-4,0.008 0.04675,0.0101 0.103066,0.006"
       style="font-size:12px;fill:#ffffff;stroke-width:0.0310944" /><path
       id="path589"
       d="m 73.539727,136.11579 c 0,0 -0.06445,0.0606 0,0 0.06453,-0.0606 0.199411,-0.10165 0.275665,-0.084 0.07618,0.0175 -0.01374,0.0273 -0.03914,0.0293 -0.02539,0.002 -0.07625,0.0117 -0.150492,0"
       style="font-size:12px;fill:none;stroke:#000000;stroke-width:0.0203145" /><path
       id="path590"
       d="m 75.076761,136.12617 c 0,0 -0.179769,-0.0208 -0.28403,0.0209 0,0 0.119497,0.13578 0.09381,0.31532 -0.013,0.0913 -0.03122,0.13817 -0.05728,0.18246 -0.02614,0.0442 -0.05474,0.13556 -0.03914,0.20852 h -0.03391 c 0,0 -0.03383,-0.14855 0.02345,-0.23197 0.05736,-0.0834 0.08604,-0.19807 0.02868,-0.31794 -0.05728,-0.11994 -0.140708,-0.16685 -0.140708,-0.16685 -0.09642,0.0391 -0.299714,0.003 -0.357073,-0.0391 -0.05721,-0.0417 -0.08596,-0.099 0.02084,-0.10426 0.106875,-0.005 0.289332,-0.003 0.414431,0.0912 0,0 0.06513,-0.0756 0.390906,-0.0391 0.325854,0.0365 0.561263,0.17566 0.633335,0.4691 0.03652,0.14855 -0.101647,0.46134 -0.22936,0.53692 0,0 0.004,-0.0508 -0.0091,-0.0873 0,0 0.217634,-0.2437 0.152508,-0.47044 -0.0652,-0.22675 -0.325779,-0.3753 -0.607345,-0.36753"
       style="font-size:12px;fill:#ffcc00;fill-opacity:1;stroke-width:0.0310944" /><path
       id="path591"
       d="m 75.076761,136.12617 c 0,0 -0.179769,-0.0208 -0.28403,0.0209 0,0 0.119497,0.13578 0.09381,0.31532 -0.013,0.0913 -0.03122,0.13817 -0.05728,0.18246 -0.02614,0.0442 -0.05474,0.13556 -0.03914,0.20852 h -0.03391 c 0,0 -0.03383,-0.14855 0.02345,-0.23197 0.05736,-0.0834 0.08604,-0.19807 0.02868,-0.31794 -0.05728,-0.11994 -0.140708,-0.16685 -0.140708,-0.16685 -0.09642,0.0391 -0.299714,0.003 -0.357073,-0.0391 -0.05721,-0.0417 -0.08596,-0.099 0.02084,-0.10426 0.106875,-0.005 0.289332,-0.003 0.414431,0.0912 0,0 0.06513,-0.0756 0.390906,-0.0391 0.325854,0.0365 0.561263,0.17566 0.633335,0.4691 0.03652,0.14855 -0.101647,0.46134 -0.22936,0.53692 0,0 0.004,-0.0508 -0.0091,-0.0873 0,0 0.217634,-0.2437 0.152508,-0.47044 -0.0652,-0.22675 -0.325779,-0.3753 -0.607345,-0.36753 z"
       style="font-size:12px;fill:#ffce54;fill-opacity:1;stroke:#000000;stroke-width:0.0203145" /><path
       id="path592"
       d="m 74.464487,136.08136 c -0.05624,-0.005 -0.101423,-0.0144 -0.100826,-0.022 6.71e-4,-0.008 0.04675,-0.0101 0.103066,-0.006 0.05631,0.005 0.101498,0.0144 0.100901,0.022 -6.72e-4,0.008 -0.04683,0.0101 -0.103141,0.006"
       style="font-size:12px;fill:#ffffff;stroke-width:0.0310944" /><path
       id="path593"
       d="m 74.669574,136.13536 c 0,0 0.06453,0.0606 0,0 -0.06445,-0.0606 -0.199336,-0.10165 -0.275591,-0.0841 -0.07625,0.0176 0.01367,0.0274 0.03906,0.0293 0.02547,0.002 0.07625,0.0117 0.150567,0"
       style="font-size:12px;fill:none;stroke:#000000;stroke-width:0.0203145" /><path
       id="path594"
       d="m 73.937877,135.92683 v 0.69331 c -0.0078,0.0677 0.08335,0.16416 0.14855,0.19284 0,0 0.153778,-0.0521 0.164159,-0.19284 v -0.73244 h -0.05213 v 0.63333 c -0.0025,0.0652 -0.04429,0.18246 -0.101647,0.20076 0,0 -0.112029,-0.0183 -0.117257,-0.19814 v -0.61758 l -0.04167,0.0208"
       style="font-size:12px;fill:#ffcc00;fill-opacity:1;stroke-width:0.0310944" /><path
       id="path595"
       d="m 73.937877,135.92683 v 0.69331 c -0.0078,0.0677 0.08335,0.16416 0.14855,0.19284 0,0 0.153778,-0.0521 0.164159,-0.19284 v -0.73244 h -0.05213 v 0.63333 c -0.0025,0.0652 -0.04429,0.18246 -0.101647,0.20076 0,0 -0.112029,-0.0183 -0.117257,-0.19814 v -0.61758 l -0.04167,0.0208"
       style="font-size:12px;fill:#ffce54;fill-opacity:1;stroke:#000000;stroke-width:0.0203145" /><path
       id="path596"
       d="m 72.404055,136.87504 c 0.04578,0 0.0829,-0.0371 0.0829,-0.0829 0,-0.0457 -0.03712,-0.0829 -0.0829,-0.0829 -0.04578,0 -0.0829,0.0371 -0.0829,0.0829 0,0.0458 0.03712,0.0829 0.0829,0.0829"
       style="font-size:12px;fill:#ffffff;stroke-width:0.0310944" /><path
       id="path597"
       d="m 72.404055,136.87504 c 0.04578,0 0.0829,-0.0371 0.0829,-0.0829 0,-0.0457 -0.03712,-0.0829 -0.0829,-0.0829 -0.04578,0 -0.0829,0.0371 -0.0829,0.0829 0,0.0458 0.03712,0.0829 0.0829,0.0829 z"
       style="font-size:12px;fill:none;stroke:#000000;stroke-width:0.0312934" /><path
       id="path598"
       d="m 72.352223,136.68444 c 0.04586,0 0.08298,-0.0371 0.08298,-0.0829 0,-0.0457 -0.03712,-0.0829 -0.08298,-0.0829 -0.04578,0 -0.0829,0.0371 -0.0829,0.0829 0,0.0458 0.03712,0.0829 0.0829,0.0829"
       style="font-size:12px;fill:#ffffff;stroke-width:0.0310944" /><path
       id="path599"
       d="m 72.352223,136.68444 c 0.04586,0 0.08298,-0.0371 0.08298,-0.0829 0,-0.0457 -0.03712,-0.0829 -0.08298,-0.0829 -0.04578,0 -0.0829,0.0371 -0.0829,0.0829 0,0.0458 0.03712,0.0829 0.0829,0.0829 z"
       style="font-size:12px;fill:none;stroke:#000000;stroke-width:0.0312934" /><path
       id="path600"
       d="m 72.379633,136.45382 c 0.04578,0 0.0829,-0.0371 0.0829,-0.083 0,-0.0458 -0.03712,-0.0829 -0.0829,-0.0829 -0.04578,0 -0.0829,0.0371 -0.0829,0.0829 0,0.0459 0.03712,0.083 0.0829,0.083"
       style="font-size:12px;fill:#ffffff;stroke-width:0.0310944" /><path
       id="path601"
       d="m 72.379633,136.45382 c 0.04578,0 0.0829,-0.0371 0.0829,-0.083 0,-0.0458 -0.03712,-0.0829 -0.0829,-0.0829 -0.04578,0 -0.0829,0.0371 -0.0829,0.0829 0,0.0459 0.03712,0.083 0.0829,0.083 z"
       style="font-size:12px;fill:none;stroke:#000000;stroke-width:0.0312934" /><path
       id="path602"
       d="m 72.508615,136.26225 c 0.04586,0 0.08298,-0.0371 0.08298,-0.0829 0,-0.0459 -0.03712,-0.083 -0.08298,-0.083 -0.04578,0 -0.0829,0.0371 -0.0829,0.083 0,0.0458 0.03712,0.0829 0.0829,0.0829"
       style="font-size:12px;fill:#ffffff;stroke-width:0.0310944" /><path
       id="path603"
       d="m 72.508615,136.26225 c 0.04586,0 0.08298,-0.0371 0.08298,-0.0829 0,-0.0459 -0.03712,-0.083 -0.08298,-0.083 -0.04578,0 -0.0829,0.0371 -0.0829,0.083 0,0.0458 0.03712,0.0829 0.0829,0.0829 z"
       style="font-size:12px;fill:none;stroke:#000000;stroke-width:0.0312934" /><path
       id="path604"
       d="m 72.661123,136.12251 c 0.04578,0 0.0829,-0.0371 0.0829,-0.083 0,-0.0458 -0.03712,-0.0829 -0.0829,-0.0829 -0.04578,0 -0.08298,0.0371 -0.08298,0.0829 0,0.0459 0.03719,0.083 0.08298,0.083"
       style="font-size:12px;fill:#ffffff;stroke-width:0.0310944" /><path
       id="path605"
       d="m 72.661123,136.12251 c 0.04578,0 0.0829,-0.0371 0.0829,-0.083 0,-0.0458 -0.03712,-0.0829 -0.0829,-0.0829 -0.04578,0 -0.08298,0.0371 -0.08298,0.0829 0,0.0459 0.03719,0.083 0.08298,0.083 z"
       style="font-size:12px;fill:none;stroke:#000000;stroke-width:0.0312934" /><path
       id="path606"
       d="m 72.857547,136.04431 c 0.04578,0 0.0829,-0.0371 0.0829,-0.083 0,-0.0458 -0.03712,-0.0829 -0.0829,-0.0829 -0.04578,0 -0.0829,0.0371 -0.0829,0.0829 0,0.0459 0.03712,0.083 0.0829,0.083"
       style="font-size:12px;fill:#ffffff;stroke-width:0.0310944" /><path
       id="path607"
       d="m 72.857547,136.04431 c 0.04578,0 0.0829,-0.0371 0.0829,-0.083 0,-0.0458 -0.03712,-0.0829 -0.0829,-0.0829 -0.04578,0 -0.0829,0.0371 -0.0829,0.0829 0,0.0459 0.03712,0.083 0.0829,0.083 z"
       style="font-size:12px;fill:none;stroke:#000000;stroke-width:0.0312934" /><path
       id="path608"
       d="m 73.062784,136.00719 c 0.04578,0 0.0829,-0.0372 0.0829,-0.083 0,-0.0458 -0.03712,-0.0829 -0.0829,-0.0829 -0.04578,0 -0.0829,0.0371 -0.0829,0.0829 0,0.0458 0.03712,0.083 0.0829,0.083"
       style="font-size:12px;fill:#ffffff;stroke-width:0.0310944" /><path
       id="path609"
       d="m 73.062784,136.00719 c 0.04578,0 0.0829,-0.0372 0.0829,-0.083 0,-0.0458 -0.03712,-0.0829 -0.0829,-0.0829 -0.04578,0 -0.0829,0.0371 -0.0829,0.0829 0,0.0458 0.03712,0.083 0.0829,0.083 z"
       style="font-size:12px;fill:none;stroke:#000000;stroke-width:0.0312934" /><path
       id="path610"
       d="m 73.258311,135.99547 c 0.04578,0 0.0829,-0.0372 0.0829,-0.083 0,-0.0458 -0.03712,-0.0829 -0.0829,-0.0829 -0.04586,0 -0.08298,0.0371 -0.08298,0.0829 0,0.0458 0.03712,0.083 0.08298,0.083"
       style="font-size:12px;fill:#ffffff;stroke-width:0.0310944" /><path
       id="path611"
       d="m 73.258311,135.99547 c 0.04578,0 0.0829,-0.0372 0.0829,-0.083 0,-0.0458 -0.03712,-0.0829 -0.0829,-0.0829 -0.04586,0 -0.08298,0.0371 -0.08298,0.0829 0,0.0458 0.03712,0.083 0.08298,0.083 z"
       style="font-size:12px;fill:none;stroke:#000000;stroke-width:0.0312934" /><path
       id="path612"
       d="m 73.434196,136.01108 c 0.04578,0 0.0829,-0.0371 0.0829,-0.0829 0,-0.0459 -0.03712,-0.083 -0.0829,-0.083 -0.04578,0 -0.0829,0.0371 -0.0829,0.083 0,0.0458 0.03712,0.0829 0.0829,0.0829"
       style="font-size:12px;fill:#ffffff;stroke-width:0.0310944" /><path
       id="path613"
       d="m 73.434196,136.01108 c 0.04578,0 0.0829,-0.0371 0.0829,-0.0829 0,-0.0459 -0.03712,-0.083 -0.0829,-0.083 -0.04578,0 -0.0829,0.0371 -0.0829,0.083 0,0.0458 0.03712,0.0829 0.0829,0.0829 z"
       style="font-size:12px;fill:none;stroke:#000000;stroke-width:0.0312934" /><path
       id="path614"
       d="m 73.935711,135.94849 c 0.04578,0 0.08298,-0.0371 0.08298,-0.0829 0,-0.0457 -0.03719,-0.0829 -0.08298,-0.0829 -0.04578,0 -0.0829,0.0371 -0.0829,0.0829 0,0.0458 0.03712,0.0829 0.0829,0.0829"
       style="font-size:12px;fill:#ffffff;stroke-width:0.0310944" /><path
       id="path615"
       d="m 73.935711,135.94849 c 0.04578,0 0.08298,-0.0371 0.08298,-0.0829 0,-0.0457 -0.03719,-0.0829 -0.08298,-0.0829 -0.04578,0 -0.0829,0.0371 -0.0829,0.0829 0,0.0458 0.03712,0.0829 0.0829,0.0829 z"
       style="font-size:12px;fill:none;stroke:#000000;stroke-width:0.0312934" /><path
       id="path616"
       d="m 74.095987,135.99151 c 0.04578,0 0.08298,-0.0371 0.08298,-0.0829 0,-0.0458 -0.03719,-0.0829 -0.08298,-0.0829 -0.04578,0 -0.0829,0.0371 -0.0829,0.0829 0,0.0458 0.03712,0.0829 0.0829,0.0829"
       style="font-size:12px;fill:#ffffff;stroke-width:0.0310944" /><path
       id="path617"
       d="m 74.095987,135.99151 c 0.04578,0 0.08298,-0.0371 0.08298,-0.0829 0,-0.0458 -0.03719,-0.0829 -0.08298,-0.0829 -0.04578,0 -0.0829,0.0371 -0.0829,0.0829 0,0.0458 0.03712,0.0829 0.0829,0.0829 z"
       style="font-size:12px;fill:none;stroke:#000000;stroke-width:0.0312934" /><path
       id="path618"
       d="m 74.095987,136.60528 c 0.04578,0 0.08298,-0.0371 0.08298,-0.0829 0,-0.0458 -0.03719,-0.0829 -0.08298,-0.0829 -0.04578,0 -0.0829,0.0371 -0.0829,0.0829 0,0.0458 0.03712,0.0829 0.0829,0.0829"
       style="font-size:12px;fill:#ffffff;stroke-width:0.0310944" /><path
       id="path619"
       d="m 74.095987,136.60528 c 0.04578,0 0.08298,-0.0371 0.08298,-0.0829 0,-0.0458 -0.03719,-0.0829 -0.08298,-0.0829 -0.04578,0 -0.0829,0.0371 -0.0829,0.0829 0,0.0458 0.03712,0.0829 0.0829,0.0829 z"
       style="font-size:12px;fill:none;stroke:#000000;stroke-width:0.0312934" /><path
       id="path620"
       d="m 75.810325,136.92785 c 0.04578,0 0.0829,-0.0371 0.0829,-0.083 0,-0.0458 -0.03712,-0.0829 -0.0829,-0.0829 -0.04586,0 -0.08298,0.0371 -0.08298,0.0829 0,0.0459 0.03712,0.083 0.08298,0.083"
       style="font-size:12px;fill:#ffffff;stroke-width:0.0310944" /><path
       id="path621"
       d="m 75.810325,136.92785 c 0.04578,0 0.0829,-0.0371 0.0829,-0.083 0,-0.0458 -0.03712,-0.0829 -0.0829,-0.0829 -0.04586,0 -0.08298,0.0371 -0.08298,0.0829 0,0.0459 0.03712,0.083 0.08298,0.083 z"
       style="font-size:12px;fill:none;stroke:#000000;stroke-width:0.0312934" /><path
       id="path622"
       d="m 75.853269,136.72156 c 0.04586,0 0.08298,-0.0371 0.08298,-0.0829 0,-0.0458 -0.03712,-0.0829 -0.08298,-0.0829 -0.04578,0 -0.0829,0.0371 -0.0829,0.0829 0,0.0458 0.03712,0.0829 0.0829,0.0829"
       style="font-size:12px;fill:#ffffff;stroke-width:0.0310944" /><path
       id="path623"
       d="m 75.853269,136.72156 c 0.04586,0 0.08298,-0.0371 0.08298,-0.0829 0,-0.0458 -0.03712,-0.0829 -0.08298,-0.0829 -0.04578,0 -0.0829,0.0371 -0.0829,0.0829 0,0.0458 0.03712,0.0829 0.0829,0.0829 z"
       style="font-size:12px;fill:none;stroke:#000000;stroke-width:0.0312934" /><path
       id="path624"
       d="m 75.818092,136.50662 c 0.04586,0 0.08298,-0.0371 0.08298,-0.083 0,-0.0458 -0.03712,-0.0829 -0.08298,-0.0829 -0.04578,0 -0.0829,0.0371 -0.0829,0.0829 0,0.0459 0.03712,0.083 0.0829,0.083"
       style="font-size:12px;fill:#ffffff;stroke-width:0.0310944" /><path
       id="path625"
       d="m 75.818092,136.50662 c 0.04586,0 0.08298,-0.0371 0.08298,-0.083 0,-0.0458 -0.03712,-0.0829 -0.08298,-0.0829 -0.04578,0 -0.0829,0.0371 -0.0829,0.0829 0,0.0459 0.03712,0.083 0.0829,0.083 z"
       style="font-size:12px;fill:none;stroke:#000000;stroke-width:0.0312934" /><path
       id="path626"
       d="m 75.728171,136.30332 c 0.04586,0 0.08298,-0.0372 0.08298,-0.083 0,-0.0457 -0.03712,-0.0829 -0.08298,-0.0829 -0.04578,0 -0.0829,0.0371 -0.0829,0.0829 0,0.0458 0.03712,0.083 0.0829,0.083"
       style="font-size:12px;fill:#ffffff;stroke-width:0.0310944" /><path
       id="path627"
       d="m 75.728171,136.30332 c 0.04586,0 0.08298,-0.0372 0.08298,-0.083 0,-0.0457 -0.03712,-0.0829 -0.08298,-0.0829 -0.04578,0 -0.0829,0.0371 -0.0829,0.0829 0,0.0458 0.03712,0.083 0.0829,0.083 z"
       style="font-size:12px;fill:none;stroke:#000000;stroke-width:0.0312934" /><path
       id="path628"
       d="m 75.575737,136.16254 c 0.04578,0 0.0829,-0.0371 0.0829,-0.0829 0,-0.0458 -0.03712,-0.0829 -0.0829,-0.0829 -0.04578,0 -0.08298,0.0371 -0.08298,0.0829 0,0.0458 0.03719,0.0829 0.08298,0.0829"
       style="font-size:12px;fill:#ffffff;stroke-width:0.0310944" /><path
       id="path629"
       d="m 75.575737,136.16254 c 0.04578,0 0.0829,-0.0371 0.0829,-0.0829 0,-0.0458 -0.03712,-0.0829 -0.0829,-0.0829 -0.04578,0 -0.08298,0.0371 -0.08298,0.0829 0,0.0458 0.03719,0.0829 0.08298,0.0829 z"
       style="font-size:12px;fill:none;stroke:#000000;stroke-width:0.0312934" /><path
       id="path630"
       d="m 75.39201,136.07262 c 0.04578,0 0.0829,-0.0371 0.0829,-0.0829 0,-0.0458 -0.03712,-0.0829 -0.0829,-0.0829 -0.04586,0 -0.08298,0.0371 -0.08298,0.0829 0,0.0458 0.03712,0.0829 0.08298,0.0829"
       style="font-size:12px;fill:#ffffff;stroke-width:0.0310944" /><path
       id="path631"
       d="m 75.39201,136.07262 c 0.04578,0 0.0829,-0.0371 0.0829,-0.0829 0,-0.0458 -0.03712,-0.0829 -0.0829,-0.0829 -0.04586,0 -0.08298,0.0371 -0.08298,0.0829 0,0.0458 0.03712,0.0829 0.08298,0.0829 z"
       style="font-size:12px;fill:none;stroke:#000000;stroke-width:0.0312934" /><path
       id="path632"
       d="m 75.182815,136.02475 c 0.04586,0 0.08298,-0.0371 0.08298,-0.0829 0,-0.0457 -0.03712,-0.0829 -0.08298,-0.0829 -0.04578,0 -0.0829,0.0371 -0.0829,0.0829 0,0.0458 0.03712,0.0829 0.0829,0.0829"
       style="font-size:12px;fill:#ffffff;stroke-width:0.0310944" /><path
       id="path633"
       d="m 75.182815,136.02475 c 0.04586,0 0.08298,-0.0371 0.08298,-0.0829 0,-0.0457 -0.03712,-0.0829 -0.08298,-0.0829 -0.04578,0 -0.0829,0.0371 -0.0829,0.0829 0,0.0458 0.03712,0.0829 0.0829,0.0829 z"
       style="font-size:12px;fill:none;stroke:#000000;stroke-width:0.0312934" /><path
       id="path634"
       d="m 74.991246,136.00914 c 0.04586,0 0.08297,-0.0371 0.08297,-0.083 0,-0.0457 -0.03712,-0.0829 -0.08297,-0.0829 -0.04578,0 -0.0829,0.0371 -0.0829,0.0829 0,0.0459 0.03712,0.083 0.0829,0.083"
       style="font-size:12px;fill:#ffffff;stroke-width:0.0310944" /><path
       id="path635"
       d="m 74.991246,136.00914 c 0.04586,0 0.08297,-0.0371 0.08297,-0.083 0,-0.0457 -0.03712,-0.0829 -0.08297,-0.0829 -0.04578,0 -0.0829,0.0371 -0.0829,0.0829 0,0.0459 0.03712,0.083 0.0829,0.083 z"
       style="font-size:12px;fill:none;stroke:#000000;stroke-width:0.0312934" /><path
       id="path636"
       d="m 74.817601,135.98628 c 0.04586,0 0.08298,-0.0371 0.08298,-0.0829 0,-0.0458 -0.03712,-0.0829 -0.08298,-0.0829 -0.04578,0 -0.0829,0.0371 -0.0829,0.0829 0,0.0458 0.03712,0.0829 0.0829,0.0829"
       style="font-size:12px;fill:#ffffff;stroke-width:0.0310944" /><path
       id="path637"
       d="m 74.817601,135.98628 c 0.04586,0 0.08298,-0.0371 0.08298,-0.0829 0,-0.0458 -0.03712,-0.0829 -0.08298,-0.0829 -0.04578,0 -0.0829,0.0371 -0.0829,0.0829 0,0.0458 0.03712,0.0829 0.0829,0.0829 z"
       style="font-size:12px;fill:none;stroke:#000000;stroke-width:0.0312934" /><path
       id="path638"
       d="m 74.929705,136.66495 c 0.04578,0 0.0829,-0.0372 0.0829,-0.083 0,-0.0457 -0.03712,-0.0829 -0.0829,-0.0829 -0.04578,0 -0.0829,0.0371 -0.0829,0.0829 0,0.0458 0.03712,0.083 0.0829,0.083"
       style="font-size:12px;fill:#ffffff;stroke-width:0.0310944" /><path
       id="path639"
       d="m 74.929705,136.66495 c 0.04578,0 0.0829,-0.0372 0.0829,-0.083 0,-0.0457 -0.03712,-0.0829 -0.0829,-0.0829 -0.04578,0 -0.0829,0.0371 -0.0829,0.0829 0,0.0458 0.03712,0.083 0.0829,0.083 z"
       style="font-size:12px;fill:none;stroke:#000000;stroke-width:0.0312934" /><path
       id="path640"
       d="m 74.972724,136.5046 c 0.04578,0 0.0829,-0.0371 0.0829,-0.0829 0,-0.0458 -0.03712,-0.0829 -0.0829,-0.0829 -0.04586,0 -0.08298,0.0371 -0.08298,0.0829 0,0.0458 0.03712,0.0829 0.08298,0.0829"
       style="font-size:12px;fill:#ffffff;stroke-width:0.0310944" /><path
       id="path641"
       d="m 74.972724,136.5046 c 0.04578,0 0.0829,-0.0371 0.0829,-0.0829 0,-0.0458 -0.03712,-0.0829 -0.0829,-0.0829 -0.04586,0 -0.08298,0.0371 -0.08298,0.0829 0,0.0458 0.03712,0.0829 0.08298,0.0829 z"
       style="font-size:12px;fill:none;stroke:#000000;stroke-width:0.0312934" /><path
       id="path642"
       d="m 74.27583,135.97396 c 0.04586,0 0.08298,-0.0372 0.08298,-0.083 0,-0.0458 -0.03712,-0.0829 -0.08298,-0.0829 -0.04578,0 -0.0829,0.0371 -0.0829,0.0829 0,0.0458 0.03712,0.083 0.0829,0.083"
       style="font-size:12px;fill:#ffffff;stroke-width:0.0310944" /><path
       id="path643"
       d="m 74.27583,135.97396 c 0.04586,0 0.08298,-0.0372 0.08298,-0.083 0,-0.0458 -0.03712,-0.0829 -0.08298,-0.0829 -0.04578,0 -0.0829,0.0371 -0.0829,0.0829 0,0.0458 0.03712,0.083 0.0829,0.083 z"
       style="font-size:12px;fill:none;stroke:#000000;stroke-width:0.0312934" /><path
       id="path644"
       d="m 73.870063,135.95148 c 0.04586,0 0.08298,-0.0371 0.08298,-0.083 0,-0.0457 -0.03712,-0.0828 -0.08298,-0.0828 -0.04578,0 -0.0829,0.037 -0.0829,0.0828 0,0.0459 0.03712,0.083 0.0829,0.083"
       style="font-size:12px;fill:#ffffff;stroke-width:0.0310944" /><path
       id="path645"
       d="m 73.870063,135.95148 c 0.04586,0 0.08298,-0.0371 0.08298,-0.083 0,-0.0457 -0.03712,-0.0828 -0.08298,-0.0828 -0.04578,0 -0.0829,0.037 -0.0829,0.0828 0,0.0459 0.03712,0.083 0.0829,0.083 z"
       style="font-size:12px;fill:none;stroke:#000000;stroke-width:0.0312934" /><path
       id="path646"
       d="m 73.772373,135.94752 c 0.04578,0 0.0829,-0.0371 0.0829,-0.0829 0,-0.0458 -0.03712,-0.0829 -0.0829,-0.0829 -0.04578,0 -0.0829,0.0371 -0.0829,0.0829 0,0.0458 0.03712,0.0829 0.0829,0.0829"
       style="font-size:12px;fill:#ffffff;stroke-width:0.0310944" /><path
       id="path647"
       d="m 73.772373,135.94752 c 0.04578,0 0.0829,-0.0371 0.0829,-0.0829 0,-0.0458 -0.03712,-0.0829 -0.0829,-0.0829 -0.04578,0 -0.0829,0.0371 -0.0829,0.0829 0,0.0458 0.03712,0.0829 0.0829,0.0829 z"
       style="font-size:12px;fill:none;stroke:#000000;stroke-width:0.0312934" /><path
       id="path648"
       d="m 73.24554,136.66689 c 0.04578,0 0.08298,-0.0371 0.08298,-0.083 0,-0.0458 -0.03719,-0.0829 -0.08298,-0.0829 -0.04578,0 -0.0829,0.0371 -0.0829,0.0829 0,0.0459 0.03712,0.083 0.0829,0.083"
       style="font-size:12px;fill:#ffffff;stroke-width:0.0310944" /><path
       id="path649"
       d="m 73.24554,136.66689 c 0.04578,0 0.08298,-0.0371 0.08298,-0.083 0,-0.0458 -0.03719,-0.0829 -0.08298,-0.0829 -0.04578,0 -0.0829,0.0371 -0.0829,0.0829 0,0.0459 0.03712,0.083 0.0829,0.083 z"
       style="font-size:12px;fill:none;stroke:#000000;stroke-width:0.0312934" /><path
       id="path650"
       d="m 73.221118,136.46845 c 0.04578,0 0.08298,-0.0371 0.08298,-0.0829 0,-0.0458 -0.03719,-0.0829 -0.08298,-0.0829 -0.04578,0 -0.0829,0.0371 -0.0829,0.0829 0,0.0458 0.03712,0.0829 0.0829,0.0829"
       style="font-size:12px;fill:#ffffff;stroke-width:0.0310944" /><path
       id="path651"
       d="m 73.221118,136.46845 c 0.04578,0 0.08298,-0.0371 0.08298,-0.0829 0,-0.0458 -0.03719,-0.0829 -0.08298,-0.0829 -0.04578,0 -0.0829,0.0371 -0.0829,0.0829 0,0.0458 0.03712,0.0829 0.0829,0.0829 z"
       style="font-size:12px;fill:none;stroke:#000000;stroke-width:0.0312934" /><path
       id="path652"
       d="m 73.279746,136.27688 c 0.04586,0 0.08298,-0.0371 0.08298,-0.0829 0,-0.0458 -0.03712,-0.0829 -0.08298,-0.0829 -0.04578,0 -0.0829,0.0371 -0.0829,0.0829 0,0.0458 0.03712,0.0829 0.0829,0.0829"
       style="font-size:12px;fill:#ffffff;stroke-width:0.0310944" /><path
       id="path653"
       d="m 73.279746,136.27688 c 0.04586,0 0.08298,-0.0371 0.08298,-0.0829 0,-0.0458 -0.03712,-0.0829 -0.08298,-0.0829 -0.04578,0 -0.0829,0.0371 -0.0829,0.0829 0,0.0458 0.03712,0.0829 0.0829,0.0829 z"
       style="font-size:12px;fill:none;stroke:#000000;stroke-width:0.0312934" /><path
       id="path654"
       d="m 73.644287,135.96612 c 0.04586,0 0.08298,-0.0371 0.08298,-0.0829 0,-0.0459 -0.03712,-0.083 -0.08298,-0.083 -0.04578,0 -0.0829,0.0371 -0.0829,0.083 0,0.0458 0.03712,0.0829 0.0829,0.0829"
       style="font-size:12px;fill:#ffffff;stroke-width:0.0310944" /><path
       id="path655"
       d="m 73.644287,135.96612 c 0.04586,0 0.08298,-0.0371 0.08298,-0.0829 0,-0.0459 -0.03712,-0.083 -0.08298,-0.083 -0.04578,0 -0.0829,0.0371 -0.0829,0.083 0,0.0458 0.03712,0.0829 0.0829,0.0829 z"
       style="font-size:12px;fill:none;stroke:#000000;stroke-width:0.0312934" /><path
       id="path656"
       d="m 73.506492,136.0228 c 0.04586,0 0.08298,-0.0371 0.08298,-0.0829 0,-0.0459 -0.03712,-0.083 -0.08298,-0.083 -0.04578,0 -0.0829,0.0371 -0.0829,0.083 0,0.0458 0.03712,0.0829 0.0829,0.0829"
       style="font-size:12px;fill:#ffffff;stroke-width:0.0310944" /><path
       id="path657"
       d="m 73.506492,136.0228 c 0.04586,0 0.08298,-0.0371 0.08298,-0.0829 0,-0.0459 -0.03712,-0.083 -0.08298,-0.083 -0.04578,0 -0.0829,0.0371 -0.0829,0.083 0,0.0458 0.03712,0.0829 0.0829,0.0829 z"
       style="font-size:12px;fill:none;stroke:#000000;stroke-width:0.0312934" /><path
       id="path658"
       d="m 73.374597,136.13423 c 0.04578,0 0.0829,-0.0372 0.0829,-0.083 0,-0.0458 -0.03712,-0.0829 -0.0829,-0.0829 -0.04586,0 -0.08298,0.0371 -0.08298,0.0829 0,0.0458 0.03712,0.083 0.08298,0.083"
       style="font-size:12px;fill:#ffffff;stroke-width:0.0310944" /><path
       id="path659"
       d="m 73.374597,136.13423 c 0.04578,0 0.0829,-0.0372 0.0829,-0.083 0,-0.0458 -0.03712,-0.0829 -0.0829,-0.0829 -0.04586,0 -0.08298,0.0371 -0.08298,0.0829 0,0.0458 0.03712,0.083 0.08298,0.083 z"
       style="font-size:12px;fill:none;stroke:#000000;stroke-width:0.0312934" /><path
       id="path660"
       d="m 74.095987,136.08539 c 0.04578,0 0.08298,-0.0372 0.08298,-0.083 0,-0.0457 -0.03719,-0.0829 -0.08298,-0.0829 -0.04578,0 -0.0829,0.0371 -0.0829,0.0829 0,0.0458 0.03712,0.083 0.0829,0.083"
       style="font-size:12px;fill:#ffffff;stroke-width:0.0310944" /><path
       id="path661"
       d="m 74.095987,136.08539 c 0.04578,0 0.08298,-0.0372 0.08298,-0.083 0,-0.0457 -0.03719,-0.0829 -0.08298,-0.0829 -0.04578,0 -0.0829,0.0371 -0.0829,0.0829 0,0.0458 0.03712,0.083 0.0829,0.083 z"
       style="font-size:12px;fill:none;stroke:#000000;stroke-width:0.0312934" /><path
       id="path662"
       d="m 74.095987,136.24171 c 0.04578,0 0.08298,-0.0371 0.08298,-0.0829 0,-0.0458 -0.03719,-0.0829 -0.08298,-0.0829 -0.04578,0 -0.0829,0.0371 -0.0829,0.0829 0,0.0458 0.03712,0.0829 0.0829,0.0829"
       style="font-size:12px;fill:#ffffff;stroke-width:0.0310944" /><path
       id="path663"
       d="m 74.095987,136.24171 c 0.04578,0 0.08298,-0.0371 0.08298,-0.0829 0,-0.0458 -0.03719,-0.0829 -0.08298,-0.0829 -0.04578,0 -0.0829,0.0371 -0.0829,0.0829 0,0.0458 0.03712,0.0829 0.0829,0.0829 z"
       style="font-size:12px;fill:none;stroke:#000000;stroke-width:0.0312934" /><path
       id="path664"
       d="m 74.095987,136.40983 c 0.04578,0 0.08298,-0.0371 0.08298,-0.0829 0,-0.0457 -0.03719,-0.0829 -0.08298,-0.0829 -0.04578,0 -0.0829,0.0371 -0.0829,0.0829 0,0.0458 0.03712,0.0829 0.0829,0.0829"
       style="font-size:12px;fill:#ffffff;stroke-width:0.0310944" /><path
       id="path665"
       d="m 74.095987,136.40983 c 0.04578,0 0.08298,-0.0371 0.08298,-0.0829 0,-0.0457 -0.03719,-0.0829 -0.08298,-0.0829 -0.04578,0 -0.0829,0.0371 -0.0829,0.0829 0,0.0458 0.03712,0.0829 0.0829,0.0829 z"
       style="font-size:12px;fill:none;stroke:#000000;stroke-width:0.0312934" /><path
       id="path666"
       d="m 74.383378,135.95245 c 0.04578,0 0.0829,-0.0372 0.0829,-0.083 0,-0.0457 -0.03712,-0.0829 -0.0829,-0.0829 -0.04586,0 -0.08298,0.0371 -0.08298,0.0829 0,0.0458 0.03712,0.083 0.08298,0.083"
       style="font-size:12px;fill:#ffffff;stroke-width:0.0310944" /><path
       id="path667"
       d="m 74.383378,135.95245 c 0.04578,0 0.0829,-0.0372 0.0829,-0.083 0,-0.0457 -0.03712,-0.0829 -0.0829,-0.0829 -0.04586,0 -0.08298,0.0371 -0.08298,0.0829 0,0.0458 0.03712,0.083 0.08298,0.083 z"
       style="font-size:12px;fill:none;stroke:#000000;stroke-width:0.0312934" /><path
       id="path668"
       d="m 74.496751,135.929 c 0.04578,0 0.0829,-0.0372 0.0829,-0.083 0,-0.0457 -0.03712,-0.0829 -0.0829,-0.0829 -0.04586,0 -0.08298,0.0371 -0.08298,0.0829 0,0.0458 0.03712,0.083 0.08298,0.083"
       style="font-size:12px;fill:#ffffff;stroke-width:0.0310944" /><path
       id="path669"
       d="m 74.496751,135.929 c 0.04578,0 0.0829,-0.0372 0.0829,-0.083 0,-0.0457 -0.03712,-0.0829 -0.0829,-0.0829 -0.04586,0 -0.08298,0.0371 -0.08298,0.0829 0,0.0458 0.03712,0.083 0.08298,0.083 z"
       style="font-size:12px;fill:none;stroke:#000000;stroke-width:0.0312934" /><path
       id="path670"
       d="m 74.624763,135.94954 c 0.04578,0 0.0829,-0.0372 0.0829,-0.083 0,-0.0458 -0.03712,-0.0829 -0.0829,-0.0829 -0.04578,0 -0.0829,0.0371 -0.0829,0.0829 0,0.0458 0.03712,0.083 0.0829,0.083"
       style="font-size:12px;fill:#ffffff;stroke-width:0.0310944" /><path
       id="path671"
       d="m 74.624763,135.94954 c 0.04578,0 0.0829,-0.0372 0.0829,-0.083 0,-0.0458 -0.03712,-0.0829 -0.0829,-0.0829 -0.04578,0 -0.0829,0.0371 -0.0829,0.0829 0,0.0458 0.03712,0.083 0.0829,0.083 z"
       style="font-size:12px;fill:none;stroke:#000000;stroke-width:0.0312934" /><path
       id="path672"
       d="m 74.945314,136.30131 c 0.04578,0 0.08298,-0.0371 0.08298,-0.0829 0,-0.0458 -0.03719,-0.0829 -0.08298,-0.0829 -0.04578,0 -0.0829,0.0371 -0.0829,0.0829 0,0.0458 0.03712,0.0829 0.0829,0.0829"
       style="font-size:12px;fill:#ffffff;stroke-width:0.0310944" /><path
       id="path673"
       d="m 74.945314,136.30131 c 0.04578,0 0.08298,-0.0371 0.08298,-0.0829 0,-0.0458 -0.03719,-0.0829 -0.08298,-0.0829 -0.04578,0 -0.0829,0.0371 -0.0829,0.0829 0,0.0458 0.03712,0.0829 0.0829,0.0829 z"
       style="font-size:12px;fill:none;stroke:#000000;stroke-width:0.0312934" /><path
       id="path674"
       d="m 74.753745,136.02377 c 0.04586,0 0.08298,-0.0371 0.08298,-0.0829 0,-0.0459 -0.03712,-0.083 -0.08298,-0.083 -0.04578,0 -0.0829,0.0371 -0.0829,0.083 0,0.0458 0.03712,0.0829 0.0829,0.0829"
       style="font-size:12px;fill:#ffffff;stroke-width:0.0310944" /><path
       id="path675"
       d="m 74.753745,136.02377 c 0.04586,0 0.08298,-0.0371 0.08298,-0.0829 0,-0.0459 -0.03712,-0.083 -0.08298,-0.083 -0.04578,0 -0.0829,0.0371 -0.0829,0.083 0,0.0458 0.03712,0.0829 0.0829,0.0829 z"
       style="font-size:12px;fill:none;stroke:#000000;stroke-width:0.0312934" /><path
       id="path676"
       d="m 74.871076,136.13715 c 0.04578,0 0.0829,-0.0371 0.0829,-0.083 0,-0.0458 -0.03712,-0.0829 -0.0829,-0.0829 -0.04586,0 -0.08298,0.0371 -0.08298,0.0829 0,0.0459 0.03712,0.083 0.08298,0.083"
       style="font-size:12px;fill:#ffffff;stroke-width:0.0310944" /><path
       id="path677"
       d="m 74.871076,136.13715 c 0.04578,0 0.0829,-0.0371 0.0829,-0.083 0,-0.0458 -0.03712,-0.0829 -0.0829,-0.0829 -0.04586,0 -0.08298,0.0371 -0.08298,0.0829 0,0.0459 0.03712,0.083 0.08298,0.083 z"
       style="font-size:12px;fill:none;stroke:#000000;stroke-width:0.0312934" /><path
       id="path678"
       d="m 74.090684,137.37902 -0.218904,0.10949 0.197021,0.12405 0.233543,-0.11673 -0.21166,-0.11681"
       style="font-size:12px;fill:#ffffff;stroke-width:0.0310944" /><path
       id="path679"
       d="m 74.090684,137.37902 -0.218904,0.10949 0.197021,0.12405 0.233543,-0.11673 -0.21166,-0.11681"
       style="font-size:12px;fill:none;stroke:#000000;stroke-width:0.0156093" /><path
       id="path680"
       d="m 73.612098,137.40203 -0.328394,0.0508 c 0,0 -0.004,0.17596 0.01173,0.21898 l 0.336161,-0.047 c 0,0 0.01568,-0.16416 -0.01949,-0.22278"
       style="font-size:12px;fill:#ffffff;stroke-width:0.0310944" /><path
       id="path681"
       d="m 73.612098,137.40203 -0.328394,0.0508 c 0,0 -0.004,0.17596 0.01173,0.21898 l 0.336161,-0.047 c 0,0 0.01568,-0.16416 -0.01949,-0.22278 z"
       style="font-size:12px;fill:none;stroke:#000000;stroke-width:0.0156093" /><path
       id="path682"
       d="m 73.575576,137.46454 c 0,0 -0.198066,0.0182 -0.247583,0.0365 l 0.0026,0.11987 c 0,0 0.130326,-0.0234 0.250197,-0.0339 l -0.0052,-0.12248"
       style="font-size:12px;fill:#007e3a;fill-opacity:1;stroke-width:0.0310944" /><path
       id="path683"
       d="m 73.575576,137.46454 c 0,0 -0.198066,0.0182 -0.247583,0.0365 l 0.0026,0.11987 c 0,0 0.130326,-0.0234 0.250197,-0.0339 l -0.0052,-0.12248"
       style="font-size:12px;fill:none;stroke:#000000;stroke-width:0.0156093" /><path
       id="path684"
       d="m 74.548434,137.41144 0.328318,0.0509 c 0,0 0.004,0.17588 -0.01172,0.2189 l -0.336161,-0.0469 c 0,0 -0.01568,-0.16424 0.01957,-0.22286"
       style="font-size:12px;fill:#ffffff;stroke-width:0.0310944" /><path
       id="path685"
       d="m 74.548434,137.41144 0.328318,0.0509 c 0,0 0.004,0.17588 -0.01172,0.2189 l -0.336161,-0.0469 c 0,0 -0.01568,-0.16424 0.01957,-0.22286 z"
       style="font-size:12px;fill:none;stroke:#000000;stroke-width:0.0156093" /><path
       id="path686"
       d="m 74.58488,137.47402 c 0,0 0.198067,0.0182 0.247584,0.0365 l -0.0026,0.11987 c 0,0 -0.130327,-0.0234 -0.250197,-0.0338 l 0.0052,-0.12249"
       style="font-size:12px;fill:#007e3a;fill-opacity:1;stroke-width:0.0310944" /><path
       id="path687"
       d="m 74.58488,137.47402 c 0,0 0.198067,0.0182 0.247584,0.0365 l -0.0026,0.11987 c 0,0 -0.130327,-0.0234 -0.250197,-0.0338 l 0.0052,-0.12249"
       style="font-size:12px;fill:none;stroke:#000000;stroke-width:0.0156093" /><path
       id="path688"
       d="m 72.791077,137.55842 c 0,0 1.151954,-0.4278 2.616766,0.0361 m -2.569863,0.2101 c 0,0 1.114237,-0.41675 2.488381,0.0185 m -2.483154,-0.28045 0.224132,0.0651 -0.156391,0.16685"
       style="font-size:12px;fill:none;stroke:#000000;stroke-width:0.0156093" /><path
       id="path689"
       d="m 72.848435,137.74341 0.127713,-0.10687 -0.145936,-0.0287 c 0,0 0.01987,0.0226 0.01576,0.0432 -0.004,0.0207 0.0012,0.0741 0.0025,0.0923"
       style="font-size:12px;fill:#b42b39;stroke-width:0.0310944;fill-opacity:1" /><path
       id="path690"
       d="m 72.848435,137.74341 0.127713,-0.10687 -0.145936,-0.0287 c 0,0 0.01987,0.0226 0.01576,0.0432 -0.004,0.0207 0.0012,0.0741 0.0025,0.0923 z"
       style="font-size:12px;fill:none;stroke:#000000;stroke-width:0.0156093" /><path
       id="path691"
       d="m 75.383047,137.58575 -0.238471,0.043 0.160275,0.18761"
       style="font-size:12px;fill:none;stroke:#000000;stroke-width:0.0156093" /><path
       id="path692"
       d="m 75.312693,137.74999 -0.08992,-0.0939 0.128982,-0.0117 c 0,0 -0.03518,0.0234 -0.03518,0.043 0,0.0196 0.004,0.0469 -0.0039,0.0626"
       style="font-size:12px;fill:#b42b39;stroke-width:0.0310944;fill-opacity:1" /><path
       id="path693"
       d="m 75.312693,137.74999 -0.08992,-0.0939 0.128982,-0.0117 c 0,0 -0.03518,0.0234 -0.03518,0.043 0,0.0196 0.004,0.0469 -0.0039,0.0626 z"
       style="font-size:12px;fill:none;stroke:#000000;stroke-width:0.0156093" /><path
       id="path694"
       d="m 73.135154,137.55924 c 0.02031,0 0.03682,-0.0132 0.03682,-0.0296 0,-0.0162 -0.01651,-0.0294 -0.03682,-0.0294 -0.02039,0 -0.0369,0.0132 -0.0369,0.0294 0,0.0164 0.01651,0.0296 0.0369,0.0296 z m 0.64073,-0.073 c 0.02039,0 0.03689,-0.0132 0.03689,-0.0294 0,-0.0164 -0.0165,-0.0295 -0.03689,-0.0295 -0.02032,0 -0.03682,0.0131 -0.03682,0.0295 0,0.0162 0.0165,0.0294 0.03682,0.0294 z m 0,0.10426 c 0.02039,0 0.03689,-0.0132 0.03689,-0.0295 0,-0.0163 -0.0165,-0.0294 -0.03689,-0.0294 -0.02032,0 -0.03682,0.0131 -0.03682,0.0294 0,0.0163 0.0165,0.0295 0.03682,0.0295 z m 0.630721,-0.099 c 0.02039,0 0.0369,-0.0131 0.0369,-0.0295 0,-0.0162 -0.01651,-0.0294 -0.0369,-0.0294 -0.02031,0 -0.03682,0.0131 -0.03682,0.0294 0,0.0164 0.01651,0.0295 0.03682,0.0295 z m 0.625494,0.11472 c 0.02039,0 0.0369,-0.0132 0.0369,-0.0296 0,-0.0162 -0.01651,-0.0294 -0.0369,-0.0294 -0.02031,0 -0.03682,0.0132 -0.03682,0.0294 0,0.0163 0.01651,0.0296 0.03682,0.0296 z m -0.01038,0.0833 c 0.02039,0 0.03689,-0.0132 0.03689,-0.0294 0,-0.0162 -0.0165,-0.0296 -0.03689,-0.0296 -0.02039,0 -0.0369,0.0133 -0.0369,0.0296 0,0.0162 0.0165,0.0294 0.0369,0.0294 z m -0.615113,-0.0938 c 0.02039,0 0.0369,-0.0132 0.0369,-0.0295 0,-0.0162 -0.01651,-0.0294 -0.0369,-0.0294 -0.02031,0 -0.03682,0.0131 -0.03682,0.0294 0,0.0163 0.01651,0.0295 0.03682,0.0295 z m -1.240531,0.0938 c 0.02031,0 0.03682,-0.0132 0.03682,-0.0294 0,-0.0162 -0.01651,-0.0296 -0.03682,-0.0296 -0.02039,0 -0.0369,0.0133 -0.0369,0.0296 0,0.0162 0.01651,0.0294 0.0369,0.0294 z"
       style="font-size:12px;fill:none;stroke:#000000;stroke-width:0.0156093" /><path
       id="path695"
       d="m 72.770239,137.22218 c 0,0 0.0052,0.22413 0.151165,0.19284 0.145935,-0.0313 0.130326,-0.21375 0.140782,-0.22413 0.01038,-0.0105 0.02599,-0.0105 0.02599,-0.0105 0,0 0.02084,0.17723 0.156317,0.15639 0.135555,-0.0208 0.130327,-0.23974 0.114718,-0.27626 l 0.03129,-0.0105 c 0,0 0.05206,0.25542 0.208448,0.21897 0.156392,-0.0365 0.140783,-0.19806 0.140783,-0.19806 h 0.01202 c 0,0 0.03488,0.172 0.159977,0.16154 0.125024,-0.0104 0.151164,-0.0521 0.13548,-0.22413 l 0.08342,-0.0156 c 0,0 -0.03129,0.2502 0.119796,0.24497 0.151239,-0.005 0.156392,-0.1251 0.166848,-0.14593 h 0.02278 c 0,0 0.0085,0.17722 0.133613,0.17722 0.125098,0 0.151089,-0.15116 0.151089,-0.20852 l 0.122186,0.005 c 0,0 -0.127339,0.23437 0.06035,0.26566 0.187611,0.0312 0.192839,-0.15124 0.192839,-0.15124 h 0.03645 c 0,0 -0.0052,0.23459 0.09903,0.23982 0.104186,0.005 0.166773,-0.0313 0.177154,-0.2033 l 0.05736,0.0208 c 0,0 -0.04974,0.27806 -0.244969,0.22929 -0.104262,-0.026 -0.135555,-0.14586 -0.130327,-0.17716 0,0 -0.07289,0.13025 -0.213676,0.0886 -0.140708,-0.0417 -0.125099,-0.14071 -0.125099,-0.172 0,0 -0.08462,0.15542 -0.203295,0.11979 -0.104186,-0.0312 -0.145936,-0.0677 -0.145936,-0.1407 0,0 -0.05213,0.11987 -0.156392,0.11471 -0.104261,-0.005 -0.156317,-0.0678 -0.161545,-0.1251 0,0 -0.02069,0.11203 -0.16162,0.11987 -0.09381,0.005 -0.145936,-0.0416 -0.166774,-0.10426 0,0 -0.02696,0.11353 -0.161545,0.13033 -0.08335,0.0105 -0.166773,-0.0365 -0.187686,-0.11464 0,0 -0.02076,0.15109 -0.156317,0.172 -0.135555,0.0208 -0.166848,-0.073 -0.166848,-0.073 0,0 -0.02599,0.11995 -0.13548,0.14594 -0.109489,0.0261 -0.182457,-0.0208 -0.208523,-0.13025 -0.02607,-0.10949 -0.01561,-0.1564 -0.01561,-0.1564 l 0.04168,0.0573"
       style="font-size:12px;fill:#ffcc00;fill-opacity:1;stroke-width:0.0310944" /><path
       id="path696"
       d="m 72.770239,137.22218 c 0,0 0.0052,0.22413 0.151165,0.19284 0.145935,-0.0313 0.130326,-0.21375 0.140782,-0.22413 0.01038,-0.0105 0.02599,-0.0105 0.02599,-0.0105 0,0 0.02084,0.17723 0.156317,0.15639 0.135555,-0.0208 0.130327,-0.23974 0.114718,-0.27626 l 0.03129,-0.0105 c 0,0 0.05206,0.25542 0.208448,0.21897 0.156392,-0.0365 0.140783,-0.19806 0.140783,-0.19806 h 0.01202 c 0,0 0.03488,0.172 0.159977,0.16154 0.125024,-0.0104 0.151164,-0.0521 0.13548,-0.22413 l 0.08342,-0.0156 c 0,0 -0.03129,0.2502 0.119796,0.24497 0.151239,-0.005 0.156392,-0.1251 0.166848,-0.14593 h 0.02278 c 0,0 0.0085,0.17722 0.133613,0.17722 0.125098,0 0.151089,-0.15116 0.151089,-0.20852 l 0.122186,0.005 c 0,0 -0.127339,0.23437 0.06035,0.26566 0.187611,0.0312 0.192839,-0.15124 0.192839,-0.15124 h 0.03645 c 0,0 -0.0052,0.23459 0.09903,0.23982 0.104186,0.005 0.166773,-0.0313 0.177154,-0.2033 l 0.05736,0.0208 c 0,0 -0.04974,0.27806 -0.244969,0.22929 -0.104262,-0.026 -0.135555,-0.14586 -0.130327,-0.17716 0,0 -0.07289,0.13025 -0.213676,0.0886 -0.140708,-0.0417 -0.125099,-0.14071 -0.125099,-0.172 0,0 -0.08462,0.15542 -0.203295,0.11979 -0.104186,-0.0312 -0.145936,-0.0677 -0.145936,-0.1407 0,0 -0.05213,0.11987 -0.156392,0.11471 -0.104261,-0.005 -0.156317,-0.0678 -0.161545,-0.1251 0,0 -0.02069,0.11203 -0.16162,0.11987 -0.09381,0.005 -0.145936,-0.0416 -0.166774,-0.10426 0,0 -0.02696,0.11353 -0.161545,0.13033 -0.08335,0.0105 -0.166773,-0.0365 -0.187686,-0.11464 0,0 -0.02076,0.15109 -0.156317,0.172 -0.135555,0.0208 -0.166848,-0.073 -0.166848,-0.073 0,0 -0.02599,0.11995 -0.13548,0.14594 -0.109489,0.0261 -0.182457,-0.0208 -0.208523,-0.13025 -0.02607,-0.10949 -0.01561,-0.1564 -0.01561,-0.1564 l 0.04168,0.0573 z"
       style="font-size:12px;fill:#ffce54;fill-opacity:1;stroke:#000000;stroke-width:0.0203145" /><path
       id="path697"
       d="m 73.072567,137.23204 c 0.02853,0 0.05161,-0.0231 0.05161,-0.0516 0,-0.0284 -0.02308,-0.0516 -0.05161,-0.0516 -0.02853,0 -0.05161,0.0232 -0.05161,0.0516 0,0.0285 0.02308,0.0516 0.05161,0.0516"
       style="font-size:12px;fill:#ffcc00;fill-opacity:1;stroke-width:0.0310944" /><path
       id="path698"
       d="m 73.072567,137.23204 c 0.02853,0 0.05161,-0.0231 0.05161,-0.0516 0,-0.0284 -0.02308,-0.0516 -0.05161,-0.0516 -0.02853,0 -0.05161,0.0232 -0.05161,0.0516 0,0.0285 0.02308,0.0516 0.05161,0.0516 z"
       style="font-size:12px;fill:#ffce54;fill-opacity:1;stroke:#000000;stroke-width:0.0203145" /><path
       id="path699"
       d="m 73.751835,137.1233 c 0.02853,0 0.05161,-0.0231 0.05161,-0.0516 0,-0.0285 -0.02308,-0.0516 -0.05161,-0.0516 -0.02853,0 -0.05161,0.0231 -0.05161,0.0516 0,0.0285 0.02308,0.0516 0.05161,0.0516"
       style="font-size:12px;fill:#ffcc00;fill-opacity:1;stroke-width:0.0310944" /><path
       id="path700"
       d="m 73.751835,137.1233 c 0.02853,0 0.05161,-0.0231 0.05161,-0.0516 0,-0.0285 -0.02308,-0.0516 -0.05161,-0.0516 -0.02853,0 -0.05161,0.0231 -0.05161,0.0516 0,0.0285 0.02308,0.0516 0.05161,0.0516 z"
       style="font-size:12px;fill:#ffce54;fill-opacity:1;stroke:#000000;stroke-width:0.0203145" /><path
       id="path701"
       d="m 74.440214,137.14346 c 0.02853,0 0.05161,-0.0232 0.05161,-0.0516 0,-0.0285 -0.02308,-0.0516 -0.05161,-0.0516 -0.02853,0 -0.05161,0.0231 -0.05161,0.0516 0,0.0284 0.02308,0.0516 0.05161,0.0516"
       style="font-size:12px;fill:#ffcc00;fill-opacity:1;stroke-width:0.0310944" /><path
       id="path702"
       d="m 74.440214,137.14346 c 0.02853,0 0.05161,-0.0232 0.05161,-0.0516 0,-0.0285 -0.02308,-0.0516 -0.05161,-0.0516 -0.02853,0 -0.05161,0.0231 -0.05161,0.0516 0,0.0284 0.02308,0.0516 0.05161,0.0516 z"
       style="font-size:12px;fill:#ffce54;fill-opacity:1;stroke:#000000;stroke-width:0.0203145" /><path
       id="path703"
       d="m 75.123365,137.25325 c 0.02853,0 0.05161,-0.0232 0.05161,-0.0516 0,-0.0285 -0.02308,-0.0516 -0.05161,-0.0516 -0.02846,0 -0.05153,0.0231 -0.05153,0.0516 0,0.0285 0.02308,0.0516 0.05153,0.0516"
       style="font-size:12px;fill:#ffcc00;fill-opacity:1;stroke-width:0.0310944" /><path
       id="path704"
       d="m 75.123365,137.25325 c 0.02853,0 0.05161,-0.0232 0.05161,-0.0516 0,-0.0285 -0.02308,-0.0516 -0.05161,-0.0516 -0.02846,0 -0.05153,0.0231 -0.05153,0.0516 0,0.0285 0.02308,0.0516 0.05153,0.0516 z"
       style="font-size:12px;fill:#ffce54;fill-opacity:1;stroke:#000000;stroke-width:0.0203145" /><path
       id="path705"
       d="m 74.06559,137.06579 h -0.0469 c -0.01173,0.0469 -0.111431,0.0763 -0.111431,0.0763 -0.01173,-0.0371 0.01367,-0.0899 0.01367,-0.0899 -0.115315,-0.0293 -0.115315,-0.0704 -0.115315,-0.0704 0.01755,-0.0391 0.123157,-0.0449 0.123157,-0.0449 -0.02741,-0.0352 -0.02151,-0.0919 -0.02151,-0.0919 0.07035,0.004 0.128982,0.0742 0.128982,0.0742 0,0 -0.07035,-0.0351 -0.06251,-0.16027 0,0 0.03906,-0.002 0.06251,0.0235 0,0 0,-0.13481 0.05669,-0.15042 h 0.0058 c 0.05669,0.0156 0.05669,0.15042 0.05669,0.15042 0.02345,-0.0253 0.06251,-0.0235 0.06251,-0.0235 0.0078,0.12509 -0.06251,0.16027 -0.06251,0.16027 0,0 0.05863,-0.0703 0.128982,-0.0742 0,0 0.0059,0.0566 -0.02151,0.0919 0,0 0.105605,0.006 0.123157,0.0449 0,0 0,0.0411 -0.115315,0.0704 0,0 0.02539,0.0528 0.01367,0.0899 0,0 -0.09971,-0.0294 -0.111431,-0.0763 h -0.107473"
       style="font-size:12px;fill:#ffcc00;fill-opacity:1;stroke-width:0.0310944" /><path
       id="path706"
       d="m 74.06559,137.06579 h -0.0469 c -0.01173,0.0469 -0.111431,0.0763 -0.111431,0.0763 -0.01173,-0.0371 0.01367,-0.0899 0.01367,-0.0899 -0.115315,-0.0293 -0.115315,-0.0704 -0.115315,-0.0704 0.01755,-0.0391 0.123157,-0.0449 0.123157,-0.0449 -0.02741,-0.0352 -0.02151,-0.0919 -0.02151,-0.0919 0.07035,0.004 0.128982,0.0742 0.128982,0.0742 0,0 -0.07035,-0.0351 -0.06251,-0.16027 0,0 0.03906,-0.002 0.06251,0.0235 0,0 0,-0.13481 0.05669,-0.15042 h 0.0058 c 0.05669,0.0156 0.05669,0.15042 0.05669,0.15042 0.02345,-0.0253 0.06251,-0.0235 0.06251,-0.0235 0.0078,0.12509 -0.06251,0.16027 -0.06251,0.16027 0,0 0.05863,-0.0703 0.128982,-0.0742 0,0 0.0059,0.0566 -0.02151,0.0919 0,0 0.105605,0.006 0.123157,0.0449 0,0 0,0.0411 -0.115315,0.0704 0,0 0.02539,0.0528 0.01367,0.0899 0,0 -0.09971,-0.0294 -0.111431,-0.0763 h -0.107473 z"
       style="font-size:12px;fill:#ffce54;fill-opacity:1;stroke:#000000;stroke-width:0.0203145" /><path
       id="path707"
       d="m 74.092253,137.09245 c 0.05221,0 0.09448,-0.0423 0.09448,-0.0945 0,-0.0521 -0.04227,-0.0944 -0.09448,-0.0944 -0.05213,0 -0.0944,0.0423 -0.0944,0.0944 0,0.0522 0.04227,0.0945 0.0944,0.0945"
       style="font-size:12px;fill:#ffffff;stroke-width:0.0310944" /><path
       id="path708"
       d="m 74.092253,137.09245 c 0.05221,0 0.09448,-0.0423 0.09448,-0.0945 0,-0.0521 -0.04227,-0.0944 -0.09448,-0.0944 -0.05213,0 -0.0944,0.0423 -0.0944,0.0944 0,0.0522 0.04227,0.0945 0.0944,0.0945 z"
       style="font-size:12px;fill:none;stroke:#000000;stroke-width:0.0125472" /><path
       id="path709"
       d="m 74.092253,137.04958 c 0.02853,0 0.05168,-0.0231 0.05168,-0.0516 0,-0.0285 -0.02315,-0.0515 -0.05168,-0.0515 -0.02845,0 -0.05153,0.0231 -0.05153,0.0515 0,0.0285 0.02308,0.0516 0.05153,0.0516"
       style="font-size:12px;fill:#ffffff;stroke-width:0.0310944" /><path
       id="path710"
       d="m 74.092253,137.04958 c 0.02853,0 0.05168,-0.0231 0.05168,-0.0516 0,-0.0285 -0.02315,-0.0515 -0.05168,-0.0515 -0.02845,0 -0.05153,0.0231 -0.05153,0.0515 0,0.0285 0.02308,0.0516 0.05153,0.0516 z"
       style="font-size:12px;fill:none;stroke:#000000;stroke-width:0.007842" /><path
       id="path711"
       d="m 74.808489,137.12696 0.04586,0.01 c 0.0014,0.0483 0.09283,0.098 0.09283,0.098 0.01919,-0.0338 0.0055,-0.0907 0.0055,-0.0907 0.1189,-0.004 0.127488,-0.0444 0.127488,-0.0444 -0.0089,-0.042 -0.110833,-0.07 -0.110833,-0.07 0.03413,-0.0286 0.0404,-0.0853 0.0404,-0.0853 -0.06961,-0.011 -0.141828,0.0454 -0.141828,0.0454 0,0 0.07625,-0.0195 0.095,-0.14347 0,0 -0.03787,-0.0101 -0.06602,0.01 0,0 0.02838,-0.13182 -0.02367,-0.159 l -0.0058,-10e-4 c -0.0587,0.003 -0.08716,0.13518 -0.08716,0.13518 -0.01755,-0.0298 -0.05616,-0.0362 -0.05616,-0.0362 -0.03406,0.12062 0.02733,0.16991 0.02733,0.16991 0,0 -0.0425,-0.0812 -0.11046,-0.0999 0,0 -0.0177,0.0541 0.0016,0.0943 0,0 -0.104411,-0.0165 -0.129879,0.018 0,0 -0.0086,0.0401 0.09791,0.0931 0,0 -0.036,0.0462 -0.03234,0.085 0,0 0.103664,-0.008 0.125025,-0.051 l 0.04578,0.01 0.0593,0.0128"
       style="font-size:12px;fill:#ffcc00;fill-opacity:1;stroke-width:0.0310944" /><path
       id="path712"
       d="m 74.808489,137.12696 0.04586,0.01 c 0.0014,0.0483 0.09283,0.098 0.09283,0.098 0.01919,-0.0338 0.0055,-0.0907 0.0055,-0.0907 0.1189,-0.004 0.127488,-0.0444 0.127488,-0.0444 -0.0089,-0.042 -0.110833,-0.07 -0.110833,-0.07 0.03413,-0.0286 0.0404,-0.0853 0.0404,-0.0853 -0.06961,-0.011 -0.141828,0.0454 -0.141828,0.0454 0,0 0.07625,-0.0195 0.095,-0.14347 0,0 -0.03787,-0.0101 -0.06602,0.01 0,0 0.02838,-0.13182 -0.02367,-0.159 l -0.0058,-10e-4 c -0.0587,0.003 -0.08716,0.13518 -0.08716,0.13518 -0.01755,-0.0298 -0.05616,-0.0362 -0.05616,-0.0362 -0.03406,0.12062 0.02733,0.16991 0.02733,0.16991 0,0 -0.0425,-0.0812 -0.11046,-0.0999 0,0 -0.0177,0.0541 0.0016,0.0943 0,0 -0.104411,-0.0165 -0.129879,0.018 0,0 -0.0086,0.0401 0.09791,0.0931 0,0 -0.036,0.0462 -0.03234,0.085 0,0 0.103664,-0.008 0.125025,-0.051 l 0.04578,0.01 0.0593,0.0128"
       style="font-size:12px;fill:#ffce54;fill-opacity:1;stroke:#000000;stroke-width:0.0203145" /><path
       id="path713"
       d="m 74.776674,137.14742 c -0.05094,-0.011 -0.08335,-0.0612 -0.07237,-0.11225 0.01098,-0.0509 0.06124,-0.0834 0.112253,-0.0724 0.05101,0.011 0.08342,0.0612 0.07244,0.11225 -0.01105,0.0509 -0.06132,0.0834 -0.112327,0.0724"
       style="font-size:12px;fill:#ffffff;stroke-width:0.0310944" /><path
       id="path714"
       d="m 74.776674,137.14742 c -0.05094,-0.011 -0.08335,-0.0612 -0.07237,-0.11225 0.01098,-0.0509 0.06124,-0.0834 0.112253,-0.0724 0.05101,0.011 0.08342,0.0612 0.07244,0.11225 -0.01105,0.0509 -0.06132,0.0834 -0.112327,0.0724 z"
       style="font-size:12px;fill:none;stroke:#000000;stroke-width:0.0125472" /><path
       id="path715"
       d="m 74.785785,137.10552 c -0.02793,-0.006 -0.04563,-0.0335 -0.03958,-0.0613 0.006,-0.0278 0.03346,-0.0456 0.06132,-0.0395 0.02786,0.006 0.04556,0.0335 0.03958,0.0613 -0.006,0.0279 -0.03353,0.0456 -0.06132,0.0395"
       style="font-size:12px;fill:#ffffff;stroke-width:0.0310944" /><path
       id="path716"
       d="m 74.785785,137.10552 c -0.02793,-0.006 -0.04563,-0.0335 -0.03958,-0.0613 0.006,-0.0278 0.03346,-0.0456 0.06132,-0.0395 0.02786,0.006 0.04556,0.0335 0.03958,0.0613 -0.006,0.0279 -0.03353,0.0456 -0.06132,0.0395 z"
       style="font-size:12px;fill:none;stroke:#000000;stroke-width:0.007842" /><path
       id="path717"
       d="m 73.352042,137.11777 -0.04653,0.006 c -0.0055,0.0481 -0.100452,0.0903 -0.100452,0.0903 -0.01651,-0.0352 0.0017,-0.0909 0.0017,-0.0909 -0.118154,-0.0139 -0.123605,-0.0546 -0.123605,-0.0546 0.01232,-0.041 0.116136,-0.0608 0.116136,-0.0608 -0.03174,-0.0312 -0.03338,-0.0882 -0.03338,-0.0882 0.07028,-0.005 0.137721,0.0566 0.137721,0.0566 0,0 -0.07439,-0.0256 -0.08312,-0.15064 0,0 0.03854,-0.007 0.06513,0.015 0,0 -0.01778,-0.13369 0.03622,-0.15669 l 0.0058,-6.8e-4 c 0.05826,0.008 0.07603,0.14168 0.07603,0.14168 0.01994,-0.0282 0.05893,-0.0315 0.05893,-0.0315 0.02427,0.123 -0.04085,0.16707 -0.04085,0.16707 0,0 0.04885,-0.0774 0.118078,-0.0905 0,0 0.01329,0.0553 -0.0092,0.0938 0,0 0.105381,-0.008 0.128011,0.0283 0,0 0.0054,0.0407 -0.105083,0.085 0,0 0.03219,0.0489 0.02547,0.0873 0,0 -0.102693,-0.0159 -0.120543,-0.0609 l -0.04653,0.006 -0.05997,0.008"
       style="font-size:12px;fill:#ffcc00;fill-opacity:1;stroke-width:0.0310944" /><path
       id="path718"
       d="m 73.352042,137.11777 -0.04653,0.006 c -0.0055,0.0481 -0.100452,0.0903 -0.100452,0.0903 -0.01651,-0.0352 0.0017,-0.0909 0.0017,-0.0909 -0.118154,-0.0139 -0.123605,-0.0546 -0.123605,-0.0546 0.01232,-0.041 0.116136,-0.0608 0.116136,-0.0608 -0.03174,-0.0312 -0.03338,-0.0882 -0.03338,-0.0882 0.07028,-0.005 0.137721,0.0566 0.137721,0.0566 0,0 -0.07439,-0.0256 -0.08312,-0.15064 0,0 0.03854,-0.007 0.06513,0.015 0,0 -0.01778,-0.13369 0.03622,-0.15669 l 0.0058,-6.8e-4 c 0.05826,0.008 0.07603,0.14168 0.07603,0.14168 0.01994,-0.0282 0.05893,-0.0315 0.05893,-0.0315 0.02427,0.123 -0.04085,0.16707 -0.04085,0.16707 0,0 0.04885,-0.0774 0.118078,-0.0905 0,0 0.01329,0.0553 -0.0092,0.0938 0,0 0.105381,-0.008 0.128011,0.0283 0,0 0.0054,0.0407 -0.105083,0.085 0,0 0.03219,0.0489 0.02547,0.0873 0,0 -0.102693,-0.0159 -0.120543,-0.0609 l -0.04653,0.006 -0.05997,0.008"
       style="font-size:12px;fill:#ffce54;fill-opacity:1;stroke:#000000;stroke-width:0.0203145" /><path
       id="path719"
       d="m 73.381991,137.1407 c 0.05176,-0.007 0.08813,-0.0544 0.08118,-0.10613 -0.0069,-0.0517 -0.05437,-0.0881 -0.106053,-0.0811 -0.05176,0.007 -0.08806,0.0544 -0.08118,0.10606 0.0069,0.0517 0.05437,0.0881 0.106054,0.0812"
       style="font-size:12px;fill:#ffffff;stroke-width:0.0310944" /><path
       id="path720"
       d="m 73.381991,137.1407 c 0.05176,-0.007 0.08813,-0.0544 0.08118,-0.10613 -0.0069,-0.0517 -0.05437,-0.0881 -0.106053,-0.0811 -0.05176,0.007 -0.08806,0.0544 -0.08118,0.10606 0.0069,0.0517 0.05437,0.0881 0.106054,0.0812 z"
       style="font-size:12px;fill:none;stroke:#000000;stroke-width:0.0125472" /><path
       id="path721"
       d="m 73.376389,137.0982 c 0.02823,-0.004 0.0481,-0.0297 0.04429,-0.058 -0.0037,-0.0282 -0.02965,-0.048 -0.05788,-0.0444 -0.02831,0.004 -0.04817,0.0297 -0.04436,0.058 0.0037,0.0283 0.02972,0.0481 0.05796,0.0444"
       style="font-size:12px;fill:#ffffff;stroke-width:0.0310944" /><path
       id="path722"
       d="m 73.376389,137.0982 c 0.02823,-0.004 0.0481,-0.0297 0.04429,-0.058 -0.0037,-0.0282 -0.02965,-0.048 -0.05788,-0.0444 -0.02831,0.004 -0.04817,0.0297 -0.04436,0.058 0.0037,0.0283 0.02972,0.0481 0.05796,0.0444 z"
       style="font-size:12px;fill:none;stroke:#000000;stroke-width:0.007842" /><path
       id="path723"
       d="m 75.46311,137.31853 c 0,0 -0.02367,-0.0621 -0.07595,-0.0398 -0.05228,0.0223 -0.0469,0.0305 -0.09366,0.0276 0,0 -0.01822,-0.0559 0.0048,-0.08 0,0 -0.07469,-0.0279 -0.09037,-0.0935 0,0 0.04003,-0.0465 0.134883,-0.0291 0,0 -0.003,-0.0471 0.01001,-0.0679 0,0 0.101871,0.0315 0.102394,0.0883 0,0 -0.03055,-0.1115 0.02323,-0.19246 0,0 0.04772,0.0205 0.04466,0.0713 0,0 0.02196,-0.10449 0.163189,-0.0764 0,0 -0.07655,0.0679 -0.08036,0.099 -0.0038,0.0311 -0.06767,0.084 -0.06879,0.10165 -9.7e-4,0.0175 -0.0087,0.0484 -0.02748,0.0668 -0.01875,0.0184 -0.02061,0.0497 -0.01912,0.0595 0.0013,0.01 -0.0032,0.0527 -0.02741,0.065"
       style="font-size:12px;fill:#ffcc00;fill-opacity:1;stroke-width:0.0310944" /><path
       id="path724"
       d="m 75.46311,137.31853 c 0,0 -0.02367,-0.0621 -0.07595,-0.0398 -0.05228,0.0223 -0.0469,0.0305 -0.09366,0.0276 0,0 -0.01822,-0.0559 0.0048,-0.08 0,0 -0.07469,-0.0279 -0.09037,-0.0935 0,0 0.04003,-0.0465 0.134883,-0.0291 0,0 -0.003,-0.0471 0.01001,-0.0679 0,0 0.101871,0.0315 0.102394,0.0883 0,0 -0.03055,-0.1115 0.02323,-0.19246 0,0 0.04772,0.0205 0.04466,0.0713 0,0 0.02196,-0.10449 0.163189,-0.0764 0,0 -0.07655,0.0679 -0.08036,0.099 -0.0038,0.0311 -0.06767,0.084 -0.06879,0.10165 -9.7e-4,0.0175 -0.0087,0.0484 -0.02748,0.0668 -0.01875,0.0184 -0.02061,0.0497 -0.01912,0.0595 0.0013,0.01 -0.0032,0.0527 -0.02741,0.065 z"
       style="font-size:12px;fill:#ffce54;fill-opacity:1;stroke:#000000;stroke-width:0.0203145" /><path
       id="path725"
       d="m 75.386632,137.19455 c 0.01001,-0.0512 0.0596,-0.0846 0.110759,-0.0746 0.01456,0.003 0.02756,0.009 0.03861,0.0172 -0.0028,0.0177 -0.01076,0.0415 -0.02629,0.0568 -0.01875,0.0184 -0.02061,0.0497 -0.01919,0.0595 0.001,0.008 -0.0017,0.0357 -0.01456,0.0534 -0.0049,-2.2e-4 -0.0098,-6.7e-4 -0.01464,-0.002 -0.05109,-0.01 -0.08454,-0.0595 -0.07469,-0.11076"
       style="font-size:12px;fill:#ffffff;stroke-width:0.0310944" /><path
       id="path726"
       d="m 75.386632,137.19455 c 0.01001,-0.0512 0.0596,-0.0846 0.110759,-0.0746 0.01456,0.003 0.02756,0.009 0.03861,0.0172 -0.0028,0.0177 -0.01076,0.0415 -0.02629,0.0568 -0.01875,0.0184 -0.02061,0.0497 -0.01919,0.0595 0.001,0.008 -0.0017,0.0357 -0.01456,0.0534 -0.0049,-2.2e-4 -0.0098,-6.7e-4 -0.01464,-0.002 -0.05109,-0.01 -0.08454,-0.0595 -0.07469,-0.11076 z"
       style="font-size:12px;fill:none;stroke:#000000;stroke-width:0.0125472" /><path
       id="path727"
       d="m 75.428755,137.20276 c 0.0054,-0.0279 0.03249,-0.0462 0.0605,-0.0408 0.0127,0.002 0.02323,0.01 0.0307,0.0191 -0.003,0.005 -0.0063,0.009 -0.01023,0.0129 -0.01875,0.0184 -0.02061,0.0497 -0.01919,0.0595 2.18e-4,0.002 2.18e-4,0.005 -1.55e-4,0.009 -0.0066,0.001 -0.01374,0.002 -0.02084,2.2e-4 -0.02801,-0.005 -0.04623,-0.0325 -0.04078,-0.0605"
       style="font-size:12px;fill:#ffffff;stroke-width:0.0310944" /><path
       id="path728"
       d="m 75.428755,137.20276 c 0.0054,-0.0279 0.03249,-0.0462 0.0605,-0.0408 0.0127,0.002 0.02323,0.01 0.0307,0.0191 -0.003,0.005 -0.0063,0.009 -0.01023,0.0129 -0.01875,0.0184 -0.02061,0.0497 -0.01919,0.0595 2.18e-4,0.002 2.18e-4,0.005 -1.55e-4,0.009 -0.0066,0.001 -0.01374,0.002 -0.02084,2.2e-4 -0.02801,-0.005 -0.04623,-0.0325 -0.04078,-0.0605 z"
       style="font-size:12px;fill:none;stroke:#000000;stroke-width:0.007842" /><path
       id="path729"
       d="m 72.726623,137.29254 c 0,0 0.02733,-0.0606 0.07812,-0.0352 0.05086,0.0254 0.04496,0.0332 0.09194,0.0332 0,0 0.02143,-0.0547 0,-0.0801 0,0 0.07618,-0.0235 0.09575,-0.088 0,0 -0.03712,-0.0488 -0.132941,-0.0371 0,0 0.0059,-0.047 -0.0058,-0.0684 0,0 -0.103589,0.0254 -0.107547,0.0821 0,0 0.03719,-0.10949 -0.01173,-0.19352 0,0 -0.04884,0.0176 -0.04884,0.0684 0,0 -0.01561,-0.10561 -0.158334,-0.086 0,0 0.0723,0.0724 0.07431,0.10359 0.0019,0.0313 0.06251,0.088 0.06251,0.1056 0,0.0175 0.0059,0.0488 0.02345,0.0684 0.01763,0.0196 0.01763,0.0508 0.01561,0.0606 -0.0019,0.01 0,0.0527 0.02353,0.0665"
       style="font-size:12px;fill:#ffcc00;fill-opacity:1;stroke-width:0.0310944" /><path
       id="path730"
       d="m 72.726623,137.29254 c 0,0 0.02733,-0.0606 0.07812,-0.0352 0.05086,0.0254 0.04496,0.0332 0.09194,0.0332 0,0 0.02143,-0.0547 0,-0.0801 0,0 0.07618,-0.0235 0.09575,-0.088 0,0 -0.03712,-0.0488 -0.132941,-0.0371 0,0 0.0059,-0.047 -0.0058,-0.0684 0,0 -0.103589,0.0254 -0.107547,0.0821 0,0 0.03719,-0.10949 -0.01173,-0.19352 0,0 -0.04884,0.0176 -0.04884,0.0684 0,0 -0.01561,-0.10561 -0.158334,-0.086 0,0 0.0723,0.0724 0.07431,0.10359 0.0019,0.0313 0.06251,0.088 0.06251,0.1056 0,0.0175 0.0059,0.0488 0.02345,0.0684 0.01763,0.0196 0.01763,0.0508 0.01561,0.0606 -0.0019,0.01 0,0.0527 0.02353,0.0665 z"
       style="font-size:12px;fill:#ffce54;fill-opacity:1;stroke:#000000;stroke-width:0.0203145" /><path
       id="path731"
       d="m 72.810271,137.17341 c -0.0069,-0.0518 -0.0543,-0.088 -0.106054,-0.0812 -0.01464,0.002 -0.02801,0.007 -0.03958,0.0149 0.0018,0.0179 0.0082,0.042 0.02285,0.0583 0.01763,0.0196 0.01763,0.0508 0.01561,0.0606 -0.0015,0.008 -4.48e-4,0.0357 0.01143,0.0541 0.0048,6e-5 0.0097,0 0.01464,-6.7e-4 0.05168,-0.007 0.08805,-0.0544 0.08111,-0.10606"
       style="font-size:12px;fill:#ffffff;stroke-width:0.0310944" /><path
       id="path732"
       d="m 72.810271,137.17341 c -0.0069,-0.0518 -0.0543,-0.088 -0.106054,-0.0812 -0.01464,0.002 -0.02801,0.007 -0.03958,0.0149 0.0018,0.0179 0.0082,0.042 0.02285,0.0583 0.01763,0.0196 0.01763,0.0508 0.01561,0.0606 -0.0015,0.008 -4.48e-4,0.0357 0.01143,0.0541 0.0048,6e-5 0.0097,0 0.01464,-6.7e-4 0.05168,-0.007 0.08805,-0.0544 0.08111,-0.10606 z"
       style="font-size:12px;fill:none;stroke:#000000;stroke-width:0.0125472" /><path
       id="path733"
       d="m 72.76785,137.17901 c -0.0037,-0.0282 -0.02973,-0.0481 -0.05796,-0.0444 -0.01292,0.002 -0.02382,0.008 -0.03182,0.0173 0.0028,0.005 0.0058,0.009 0.0094,0.0136 0.01763,0.0196 0.01763,0.0508 0.01561,0.0606 -3.73e-4,0.002 -5.23e-4,0.005 -4.48e-4,0.009 0.0066,0.002 0.01367,0.002 0.02084,0.002 0.02823,-0.004 0.0481,-0.0297 0.04436,-0.058"
       style="font-size:12px;fill:#ffffff;stroke-width:0.0310944" /><path
       id="path734"
       d="m 72.76785,137.17901 c -0.0037,-0.0282 -0.02973,-0.0481 -0.05796,-0.0444 -0.01292,0.002 -0.02382,0.008 -0.03182,0.0173 0.0028,0.005 0.0058,0.009 0.0094,0.0136 0.01763,0.0196 0.01763,0.0508 0.01561,0.0606 -3.73e-4,0.002 -5.23e-4,0.005 -4.48e-4,0.009 0.0066,0.002 0.01367,0.002 0.02084,0.002 0.02823,-0.004 0.0481,-0.0297 0.04436,-0.058 z"
       style="font-size:12px;fill:none;stroke:#000000;stroke-width:0.007842" /><path
       id="path735"
       d="m 72.884882,137.86328 c 0,0 1.049336,-0.41107 2.375009,0.009"
       style="font-size:12px;fill:none;stroke:#000000;stroke-width:0.0469027" /><path
       id="path736"
       d="m 75.407843,137.53594 c -1.464812,-0.46395 -2.632376,-0.0261 -2.632376,-0.0261"
       style="font-size:12px;fill:none;stroke:#000000;stroke-width:0.0156093" /><path
       id="path737"
       d="m 74.089041,137.43332 -0.117331,0.0586 0.105606,0.0665 0.125098,-0.0626 -0.113373,-0.0625"
       style="font-size:12px;fill:#b42b39;stroke-width:0.0310944;fill-opacity:1" /><path
       id="path738"
       d="m 74.089041,137.43332 -0.117331,0.0586 0.105606,0.0665 0.125098,-0.0626 -0.113373,-0.0625"
       style="font-size:12px;fill:none;stroke:#000000;stroke-width:0.0156093" /></g><style
     type="text/css"
     id="style2">  
	.st0{fill:#FCDD09;}
	.st1{fill:#0072BC;}
	.st2{fill:#DA121A;}
	.st3{fill:#FCDD09;stroke:#000000;}
	.st4{fill:none;stroke:#000000;}
	.st5{fill:#FFFFFF;stroke:#000000;}
	.st6{fill:#DA121A;stroke:#000000;}
	.st7{fill:#078930;stroke:#000000;}
</style></svg>
