<?xml version="1.0" encoding="UTF-8" standalone="no"?>
<!-- Created with Inkscape (http://www.inkscape.org/) -->

<svg
   width="18.521mm"
   height="12.435mm"
   viewBox="0 0 18.521 12.435"
   version="1.1"
   id="svg11070"
   inkscape:version="1.2.2 (b0a8486541, 2022-12-01)"
   sodipodi:docname="va_es.svg"
   xml:space="preserve"
   xmlns:inkscape="http://www.inkscape.org/namespaces/inkscape"
   xmlns:sodipodi="http://sodipodi.sourceforge.net/DTD/sodipodi-0.dtd"
   xmlns:xlink="http://www.w3.org/1999/xlink"
   xmlns="http://www.w3.org/2000/svg"
   xmlns:svg="http://www.w3.org/2000/svg"><sodipodi:namedview
     id="namedview11072"
     pagecolor="#ffffff"
     bordercolor="#000000"
     borderopacity="0.25"
     inkscape:showpageshadow="2"
     inkscape:pageopacity="0.0"
     inkscape:pagecheckerboard="0"
     inkscape:deskcolor="#d1d1d1"
     inkscape:document-units="mm"
     showgrid="false"
     inkscape:zoom="5.6568543"
     inkscape:cx="49.939416"
     inkscape:cy="55.949824"
     inkscape:window-width="1706"
     inkscape:window-height="1243"
     inkscape:window-x="3330"
     inkscape:window-y="120"
     inkscape:window-maximized="0"
     inkscape:current-layer="layer1" /><defs
     id="defs11067"><clipPath
       clipPathUnits="userSpaceOnUse"
       id="clipPath1901"><path
         id="path1903"
         d="M 1727.4838,-30.750004 V 569.25 h 1000 V -30.750004 Z"
         inkscape:connector-curvature="0"
         style="fill:#00247d;stroke-width:20" /></clipPath><clipPath
       clipPathUnits="userSpaceOnUse"
       id="clipPath1897"><path
         id="path1899"
         d="M 1727.4838,-30.750004 V 569.25 h 1000 V -30.750004 Z"
         inkscape:connector-curvature="0"
         style="fill:#00247d;stroke-width:20" /></clipPath><filter
       style="color-interpolation-filters:sRGB"
       inkscape:label="Lightness-Contrast"
       id="filter11928"
       x="-0.0086460104"
       y="-0.014749691"
       width="1.017292"
       height="1.0147496"><feColorMatrix
         values="0.63 0 0 0 0.185 0 0.63 0 0 0.185 0 0 0.63 0 0.185 0 0 0 1 0"
         id="feColorMatrix11926" /></filter><filter
       style="color-interpolation-filters:sRGB"
       inkscape:label="Lightness-Contrast"
       id="filter11912"
       x="0"
       y="0"
       width="1"
       height="1.004017"><feColorMatrix
         values="0.63 0 0 0 0.185 0 0.63 0 0 0.185 0 0 0.63 0 0.185 0 0 0 1 0"
         id="feColorMatrix11910" /></filter><filter
       style="color-interpolation-filters:sRGB"
       inkscape:label="Lightness-Contrast"
       id="filter11904"
       x="0"
       y="-0.0031773455"
       width="1.0010136"
       height="1.0031773"><feColorMatrix
         values="0.63 0 0 0 0.185 0 0.63 0 0 0.185 0 0 0.63 0 0.185 0 0 0 1 0"
         id="feColorMatrix11902" /></filter><radialGradient
       gradientTransform="matrix(0.185743,0.047185,-0.04532,0.186354,233.79812,198.76959)"
       r="25.858999"
       cy="103.66"
       cx="842.31"
       gradientUnits="userSpaceOnUse"
       xlink:href="#lg"
       id="rg1" /><linearGradient
       id="lg"><stop
         id="stop17085"
         offset="0"
         stop-color="#fff" /><stop
         id="stop17087"
         offset="1"
         stop-color="#f15770" /></linearGradient><radialGradient
       gradientTransform="matrix(-0.176418,-0.070669,0.065152,-0.163915,430.54435,377.87561)"
       r="25.858999"
       cy="550.46002"
       cx="651.52002"
       gradientUnits="userSpaceOnUse"
       xlink:href="#lg"
       id="rg2" /><radialGradient
       gradientTransform="matrix(0.098907,0.003695,-0.004498,0.194304,442.36222,123.30418)"
       r="25.858999"
       cy="740.37"
       cx="380.84"
       gradientUnits="userSpaceOnUse"
       xlink:href="#lg"
       id="rg3" /><filter
       style="color-interpolation-filters:sRGB"
       inkscape:label="Lightness-Contrast"
       id="filter11916"
       x="-0.0033178341"
       y="-0.0017783646"
       width="1.0033178"
       height="1.0017784"><feColorMatrix
         values="0.63 0 0 0 0.185 0 0.63 0 0 0.185 0 0 0.63 0 0.185 0 0 0 1 0"
         id="feColorMatrix11914" /></filter><filter
       style="color-interpolation-filters:sRGB"
       inkscape:label="Lightness-Contrast"
       id="filter11924"
       x="-0.0028595249"
       y="0"
       width="1.0028595"
       height="1"><feColorMatrix
         values="0.63 0 0 0 0.185 0 0.63 0 0 0.185 0 0 0.63 0 0.185 0 0 0 1 0"
         id="feColorMatrix11922" /></filter><filter
       style="color-interpolation-filters:sRGB"
       inkscape:label="Lightness-Contrast"
       id="filter11908"
       x="-0.0021827673"
       y="-0.00013561382"
       width="1.0021828"
       height="1.0001355"><feColorMatrix
         values="0.63 0 0 0 0.185 0 0.63 0 0 0.185 0 0 0.63 0 0.185 0 0 0 1 0"
         id="feColorMatrix11906" /></filter><filter
       style="color-interpolation-filters:sRGB"
       inkscape:label="Lightness-Contrast"
       id="filter11920"
       x="0"
       y="0"
       width="1"
       height="1"><feColorMatrix
         values="0.63 0 0 0 0.185 0 0.63 0 0 0.185 0 0 0.63 0 0.185 0 0 0 1 0"
         id="feColorMatrix11918" /></filter><filter
       style="color-interpolation-filters:sRGB"
       inkscape:label="Lightness-Contrast"
       id="filter11932"
       x="-0.0041075991"
       y="-0.00089971506"
       width="1.0092005"
       height="1.005335"><feColorMatrix
         values="0.63 0 0 0 0.185 0 0.63 0 0 0.185 0 0 0.63 0 0.185 0 0 0 1 0"
         id="feColorMatrix11930" /></filter><filter
       style="color-interpolation-filters:sRGB"
       inkscape:label="Lightness-Contrast"
       id="filter11964"
       x="0"
       y="0"
       width="1"
       height="1"><feColorMatrix
         values="0.63 0 0 0 0.185 0 0.63 0 0 0.185 0 0 0.63 0 0.185 0 0 0 1 0"
         id="feColorMatrix11962" /></filter><filter
       style="color-interpolation-filters:sRGB"
       inkscape:label="Lightness-Contrast"
       id="filter11988"
       x="0"
       y="0"
       width="1"
       height="1"><feColorMatrix
         values="0.63 0 0 0 0.185 0 0.63 0 0 0.185 0 0 0.63 0 0.185 0 0 0 1 0"
         id="feColorMatrix11986" /></filter><filter
       style="color-interpolation-filters:sRGB"
       inkscape:label="Lightness-Contrast"
       id="filter11984"
       x="0"
       y="0"
       width="1"
       height="1"><feColorMatrix
         values="0.63 0 0 0 0.185 0 0.63 0 0 0.185 0 0 0.63 0 0.185 0 0 0 1 0"
         id="feColorMatrix11982" /></filter><filter
       style="color-interpolation-filters:sRGB"
       inkscape:label="Lightness-Contrast"
       id="filter11968"
       x="0"
       y="0"
       width="1"
       height="1"><feColorMatrix
         values="0.63 0 0 0 0.185 0 0.63 0 0 0.185 0 0 0.63 0 0.185 0 0 0 1 0"
         id="feColorMatrix11966" /></filter><filter
       style="color-interpolation-filters:sRGB"
       inkscape:label="Lightness-Contrast"
       id="filter11976"
       x="0"
       y="0"
       width="1"
       height="1"><feColorMatrix
         values="0.63 0 0 0 0.185 0 0.63 0 0 0.185 0 0 0.63 0 0.185 0 0 0 1 0"
         id="feColorMatrix11974" /></filter><filter
       style="color-interpolation-filters:sRGB"
       inkscape:label="Lightness-Contrast"
       id="filter11972"
       x="0"
       y="0"
       width="1"
       height="1"><feColorMatrix
         values="0.63 0 0 0 0.185 0 0.63 0 0 0.185 0 0 0.63 0 0.185 0 0 0 1 0"
         id="feColorMatrix11970" /></filter><filter
       style="color-interpolation-filters:sRGB"
       inkscape:label="Lightness-Contrast"
       id="filter11980"
       x="0"
       y="0"
       width="1"
       height="1"><feColorMatrix
         values="0.63 0 0 0 0.185 0 0.63 0 0 0.185 0 0 0.63 0 0.185 0 0 0 1 0"
         id="feColorMatrix11978" /></filter><filter
       style="color-interpolation-filters:sRGB"
       inkscape:label="Lightness-Contrast"
       id="filter11940"
       x="-0.0032501293"
       y="-0.00663384"
       width="1.006391"
       height="1.0133005"><feColorMatrix
         values="0.63 0 0 0 0.185 0 0.63 0 0 0.185 0 0 0.63 0 0.185 0 0 0 1 0"
         id="feColorMatrix11938" /></filter><filter
       style="color-interpolation-filters:sRGB"
       inkscape:label="Lightness-Contrast"
       id="filter11944"
       x="0"
       y="0"
       width="1"
       height="1"><feColorMatrix
         values="0.63 0 0 0 0.185 0 0.63 0 0 0.185 0 0 0.63 0 0.185 0 0 0 1 0"
         id="feColorMatrix11942" /></filter><filter
       style="color-interpolation-filters:sRGB"
       inkscape:label="Lightness-Contrast"
       id="filter11956"
       x="-0.11979167"
       y="-0.11979167"
       width="1.2395833"
       height="1.2395833"><feColorMatrix
         values="0.63 0 0 0 0.185 0 0.63 0 0 0.185 0 0 0.63 0 0.185 0 0 0 1 0"
         id="feColorMatrix11954" /></filter><filter
       style="color-interpolation-filters:sRGB"
       inkscape:label="Lightness-Contrast"
       id="filter11952"
       x="-0.04073536"
       y="-0.027788086"
       width="1.0815914"
       height="1.0555762"><feColorMatrix
         values="0.63 0 0 0 0.185 0 0.63 0 0 0.185 0 0 0.63 0 0.185 0 0 0 1 0"
         id="feColorMatrix11950" /></filter><filter
       style="color-interpolation-filters:sRGB"
       inkscape:label="Lightness-Contrast"
       id="filter11948"
       x="-0.0033528646"
       y="0"
       width="1.0123858"
       height="1"><feColorMatrix
         values="0.63 0 0 0 0.185 0 0.63 0 0 0.185 0 0 0.63 0 0.185 0 0 0 1 0"
         id="feColorMatrix11946" /></filter><filter
       style="color-interpolation-filters:sRGB"
       inkscape:label="Lightness-Contrast"
       id="filter11936"
       x="-0.00043036827"
       y="-0.0021713185"
       width="1.0011829"
       height="1.0062945"><feColorMatrix
         values="0.63 0 0 0 0.185 0 0.63 0 0 0.185 0 0 0.63 0 0.185 0 0 0 1 0"
         id="feColorMatrix11934" /></filter><radialGradient
       r="16.534149"
       cy="308.26917"
       cx="447.41757"
       gradientUnits="userSpaceOnUse"
       xlink:href="#rgbase"
       id="rg1-5" /><radialGradient
       id="rgbase"><stop
         id="stop16451"
         offset="0.2165"
         stop-color="#f9f0aa" /><stop
         id="stop16453"
         offset="1"
         stop-color="#b07e09" /></radialGradient><radialGradient
       r="10.9114"
       cy="312.99521"
       cx="451.55807"
       gradientUnits="userSpaceOnUse"
       xlink:href="#rgbase"
       id="rg2-0" /><radialGradient
       id="radialGradient36786"><stop
         id="stop36782"
         offset="0.2165"
         stop-color="#f9f0aa" /><stop
         id="stop36784"
         offset="1"
         stop-color="#b07e09" /></radialGradient><radialGradient
       r="9.7796001"
       cy="308.64279"
       cx="454.11008"
       gradientUnits="userSpaceOnUse"
       xlink:href="#rgbase"
       id="rg3-3" /><radialGradient
       id="radialGradient36793"><stop
         id="stop36789"
         offset="0.2165"
         stop-color="#f9f0aa" /><stop
         id="stop36791"
         offset="1"
         stop-color="#b07e09" /></radialGradient><radialGradient
       r="17.35437"
       cy="307.05652"
       cx="458.39038"
       gradientUnits="userSpaceOnUse"
       xlink:href="#rgbase"
       id="rg4" /><radialGradient
       id="radialGradient36800"><stop
         id="stop36796"
         offset="0.2165"
         stop-color="#f9f0aa" /><stop
         id="stop36798"
         offset="1"
         stop-color="#b07e09" /></radialGradient><linearGradient
       y2="231.9632"
       x2="472.35657"
       y1="259.17123"
       x1="473.9057"
       gradientUnits="userSpaceOnUse"
       id="lg1"><stop
         id="stop16471"
         offset="0.2165"
         stop-opacity="0"
         stop-color="#b07e09" /><stop
         id="stop16473"
         offset="1"
         stop-color="#b07e09" /></linearGradient><linearGradient
       y2="326.5834"
       x2="485.49466"
       y1="296.65619"
       x1="483.12616"
       gradientUnits="userSpaceOnUse"
       id="lg2"><stop
         id="stop16476"
         offset="0.2165"
         stop-opacity="0"
         stop-color="#b07e09" /><stop
         id="stop16478"
         offset="1"
         stop-color="#b07e09" /></linearGradient><radialGradient
       r="13.01791"
       cy="252.36295"
       cx="445.97552"
       gradientUnits="userSpaceOnUse"
       xlink:href="#rgbase"
       id="rg5" /><radialGradient
       id="radialGradient36813"><stop
         id="stop36809"
         offset="0.2165"
         stop-color="#f9f0aa" /><stop
         id="stop36811"
         offset="1"
         stop-color="#b07e09" /></radialGradient><linearGradient
       y2="240.57625"
       x2="455.36642"
       y1="249.52251"
       x1="451.54059"
       gradientUnits="userSpaceOnUse"
       id="lg3"><stop
         id="stop16481"
         offset="0.2165"
         stop-color="#f9f0aa" /><stop
         id="stop16483"
         offset="1"
         stop-color="#b07e09" /></linearGradient><linearGradient
       y2="270.44556"
       x2="475.92896"
       y1="237.24661"
       x1="473.31357"
       gradientUnits="userSpaceOnUse"
       id="lg4"><stop
         id="stop16486"
         offset="0.2165"
         stop-color="#f9f0aa" /><stop
         id="stop16488"
         offset="1"
         stop-color="#b07e09" /></linearGradient></defs><g
     inkscape:label="Capa 1"
     inkscape:groupmode="layer"
     id="layer1"
     transform="translate(-64.955134,-133.02672)"><rect
       class="st0"
       width="18.503325"
       height="12.435679"
       id="rect4"
       x="64.972809"
       y="133.02744"
       style="stroke-width:0.0145901;fill:#ffce54;fill-opacity:1" /><rect
       class="st1"
       width="6.026763"
       height="12.435679"
       id="rect6"
       x="64.957901"
       y="133.02744"
       style="stroke-width:0.0144223;fill:#4a89dc;fill-opacity:1" /><polygon
       class="st2"
       points="1276.2,188.3 1276.2,94.2 426,94.2 426,0 331.8,0 331.8,847 426,847 426,752.8 1276.2,752.8 1276.2,658.7 426,658.7 426,564.7 1276.2,564.7 1276.2,470.6 426,470.6 426,376.4 1276.2,376.4 1276.2,282.3 426,282.3 426,188.3 "
       id="polygon8"
       transform="matrix(0.01468203,0,0,0.01468203,64.738926,133.02744)"
       style="fill:#ed5565;fill-opacity:1" /><path
       class="st3"
       d="m 67.590176,144.36637 c 0,0 -0.566726,1.25238 -0.819257,0.65188 0,0 0.07194,0.0279 0.127734,-0.0279 0.04992,-0.0499 0.04405,-0.0969 -0.01321,-0.16591 -0.06167,-0.0749 -0.239317,-0.0411 -0.274554,0.047 -0.08075,0.20555 0.111583,0.47717 0.286299,0.46396 0.461016,-0.0308 0.510935,-0.52415 0.816321,-0.94406 0.01762,-0.0279 -0.123329,-0.025 -0.123329,-0.025 z"
       id="path10"
       style="stroke-width:0.014682;fill:#ffce54;fill-opacity:1" /><path
       class="st3"
       d="m 67.600454,142.92606 c 0,0 -0.566727,-1.25237 -0.819258,-0.65188 0,0 0.07194,-0.0279 0.127734,0.0279 0.04992,0.0499 0.04405,0.0969 -0.01321,0.16591 -0.06166,0.0749 -0.239317,0.0411 -0.274554,-0.047 -0.08075,-0.20555 0.111584,-0.47423 0.2863,-0.46395 0.461016,0.0308 0.510934,0.52415 0.816321,0.94406 0.01615,0.025 -0.123329,0.025 -0.123329,0.025 z"
       id="path12"
       style="stroke-width:0.014682;fill:#ffce54;fill-opacity:1" /><path
       class="st3"
       d="m 69.501777,143.21971 c -0.08075,0.15562 -0.747316,0.41109 -0.747316,0.41109 0,0 0.648946,0.24666 0.738506,0.4111 l 0.0088,0.24078 c -0.330346,-0.44927 -0.660692,-0.49184 -0.916159,-0.50506 -0.180589,-0.009 -0.164439,0.0969 -0.13067,0.13948 0.296577,0.37733 -0.08662,0.48598 -0.143884,0.7987 -0.0029,0.0162 -0.04698,-0.0529 -0.06167,-0.14388 -0.0088,-0.0587 0.0088,-0.14682 0.0088,-0.14682 -0.133607,0.21876 -0.299514,0.0441 -0.402288,0.26428 0,0 -0.02202,-0.0338 -0.03377,-0.044 -0.03083,-0.0279 -0.124797,-0.0132 -0.139479,-0.26134 0,-0.009 -0.108647,0.0191 -0.108647,0.0191 0.06166,-0.20555 0.585813,-0.43312 0.44927,-0.56967 -0.155629,-0.14975 -0.165907,0.32154 -0.40816,0.35531 -0.01321,0.003 0.0367,-0.13654 0.0367,-0.13654 -0.11452,0.006 -0.164439,0.13654 -0.174716,0.21435 l -0.0279,-0.0719 c -0.108647,-0.0617 0.0279,-0.36852 -0.02202,-0.42137 -0.03817,-0.0411 -0.168844,0.12773 -0.224635,0.15563 -0.05579,0.0279 -0.371456,0.0279 -0.215826,0.21876 0.01175,0.0162 -0.03083,-0.0866 0.04111,-0.0998 0.08075,-0.0132 0.07782,0.0807 0.07782,0.0881 0,0.0382 -0.07194,0.13655 -0.186462,0.0808 -0.0059,-0.003 -0.215825,-0.15563 0.05873,-0.37146 0,0 -0.168844,0.10277 -0.34356,-0.0807 -0.03817,-0.0382 -0.08809,-0.0881 -0.149757,-0.12774 0.06167,-0.0382 0.105711,-0.0837 0.143884,-0.12479 0.177653,-0.18353 0.34356,-0.0837 0.34356,-0.0837 -0.274554,-0.21583 -0.06607,-0.36852 -0.05873,-0.37146 0.111583,-0.0558 0.183525,0.0411 0.186461,0.0808 0,0.009 0.0029,0.10277 -0.07781,0.0881 -0.07194,-0.0132 -0.03083,-0.11452 -0.04111,-0.0998 -0.15563,0.19087 0.161502,0.19087 0.218762,0.21876 0.05579,0.0279 0.186462,0.19674 0.224635,0.15563 0.04992,-0.0529 -0.08662,-0.36118 0.02202,-0.42137 l 0.02496,-0.0719 c 0.01321,0.0778 0.06313,0.20848 0.177652,0.21435 0,0 -0.04992,-0.13948 -0.0367,-0.13654 0.240786,0.0308 0.255468,0.50506 0.408161,0.35237 0.136543,-0.13361 -0.389074,-0.36118 -0.44927,-0.56673 0,0 0.108647,0.0279 0.108647,0.0191 0.01321,-0.24959 0.108647,-0.23638 0.136542,-0.26428 0.01175,-0.0117 0.03083,-0.044 0.03083,-0.044 0.102774,0.21876 0.271617,0.0411 0.402287,0.26134 0,0 -0.01909,-0.0881 -0.01174,-0.14682 0.01321,-0.091 0.05873,-0.15857 0.06166,-0.14389 0.06167,0.3142 0.443398,0.41844 0.146821,0.79724 -0.03377,0.0411 -0.04992,0.14975 0.133606,0.13948 0.255467,-0.0132 0.585813,-0.0587 0.913222,-0.508 z"
       id="path14"
       style="stroke-width:0.014682;fill:#ffce54;fill-opacity:1" /><path
       class="st4"
       d="m 67.447761,144.19166 c 0.0367,-0.30539 0.29364,-0.40523 0.289236,-0.55499 -0.0059,-0.14975 -0.265745,-0.30538 -0.296577,-0.56085 m 0.368518,1.5607 c -0.202612,-0.42137 0.449271,-0.56379 0.430184,-0.99985 -0.01909,-0.41403 -0.638668,-0.59609 -0.43312,-1.00425 m 0.941118,0.99838 h -2.265437"
       id="path16"
       style="stroke-width:0.014682" /><path
       class="st3"
       d="m 68.541572,141.29636 c -0.07194,-0.19674 -0.280427,-0.25253 -0.399351,-0.25547 -0.133607,-0.006 -0.342092,0.17765 -0.469825,0.25547 -0.11452,0.069 -0.3186,-0.022 -0.352369,-0.10277 -0.07194,-0.17766 0.04111,-0.21143 0.0969,-0.20262 0,0 -0.06607,0.12774 0.04405,0.11159 0.06901,-0.0118 0.08809,-0.11452 0.07782,-0.15563 -0.02202,-0.0837 -0.140947,-0.0749 -0.189398,-0.0617 -0.152693,0.044 -0.127734,0.25841 -0.07488,0.33916 0.07488,0.12186 0.264276,0.13948 0.383201,0.12186 0.183525,-0.0279 0.330345,-0.21436 0.438992,-0.20849 0.0279,0 0.05873,0.0998 0.03083,0.10571 -0.183526,0.0338 -0.158566,0.16444 -0.158566,0.16444 v 0.003 c 0,0 -0.02496,0.12773 0.158566,0.16444 0.0279,0.006 -0.0088,0.10864 -0.03671,0.10864 -0.108647,0.006 -0.249594,-0.18646 -0.433119,-0.21142 -0.118925,-0.0162 -0.308323,0 -0.383201,0.12186 -0.04992,0.0808 -0.07488,0.29365 0.07488,0.33916 0.04698,0.0132 0.164439,0.022 0.189398,-0.0617 0.01175,-0.0411 -0.0059,-0.14682 -0.07782,-0.15562 -0.111583,-0.0162 -0.04405,0.11158 -0.04405,0.11158 -0.05579,0.0117 -0.168843,-0.025 -0.0969,-0.20261 0.03377,-0.0807 0.239317,-0.17178 0.352369,-0.10278 0.127733,0.0807 0.336218,0.26134 0.469825,0.25547 0.118924,-0.006 0.327409,-0.0587 0.399351,-0.25547 v -0.22904 0 z"
       id="path18"
       style="stroke-width:0.014682;fill:#ffce54;fill-opacity:1" /><path
       class="st3"
       d="m 69.460667,141.16569 c -0.02496,0.13067 -0.355305,0.24372 -0.355305,0.24372 0,0 0.324473,0.16884 0.368519,0.30539 l -0.0088,0.15856 c -0.10571,-0.35824 -0.507998,-0.38613 -0.507998,-0.38613 0.08662,0.12186 0.161503,0.28923 -0.04405,0.45514 0,0 0.06167,-0.15563 0.03083,-0.19087 0,0 -0.0279,0.0969 -0.143884,0.18646 -0.04698,0.0367 -0.177652,0.0308 -0.23638,0.0661 l 0.04992,-0.15856 c -0.06166,0.12773 -0.233445,0.14388 -0.233445,0.14388 -0.01175,-0.044 -0.0059,-0.14976 0.04698,-0.23051 0.09984,-0.15269 0.07782,-0.26427 0.07782,-0.26427 -0.08662,0.19086 -0.427247,0.20848 -0.491848,0.1615 -0.0088,-0.006 0.07488,-0.0881 0.07488,-0.0881 -0.03083,0.006 -0.115988,-0.0558 -0.11452,-0.072 0.0029,-0.0249 0.05873,-0.0778 0.06901,-0.094 0,0 -0.06313,-0.0529 -0.06607,-0.0778 -0.0029,-0.0162 0.08369,-0.0778 0.114519,-0.072 0,0 -0.08662,-0.0837 -0.07488,-0.0881 0.06313,-0.047 0.405224,-0.0308 0.491848,0.1615 0,0 0.02496,-0.10864 -0.07488,-0.26427 -0.05286,-0.0807 -0.05873,-0.1894 -0.04992,-0.23051 0,0 0.174716,0.0162 0.233444,0.14388 l -0.04992,-0.15856 c 0.05873,0.0338 0.189398,0.0279 0.236381,0.0661 0.115988,0.0881 0.143884,0.18646 0.143884,0.18646 0.03083,-0.0367 -0.03083,-0.19087 -0.03083,-0.19087 0.205548,0.16591 0.13067,0.33328 0.04405,0.45514 0,0 0.405224,-0.0279 0.507998,-0.38613 z"
       id="path20"
       style="stroke-width:0.014682;fill:#ffce54;fill-opacity:1" /><path
       class="st3"
       d="m 67.547598,141.45199 c -0.111583,0.003 -0.264276,0.0807 -0.402287,0.0617 -0.09984,-0.0132 -0.277491,-0.1336 -0.277491,-0.1336 0,0 0.180589,-0.094 0.271618,-0.11452 0.14682,-0.0338 0.293641,0.094 0.405224,0.0969 0.02349,0 0.02496,0.0896 0.0029,0.0896 z"
       id="path22"
       style="stroke-width:0.014682;fill:#ffce54;fill-opacity:1" /><path
       class="st3"
       d="m 67.550535,141.23029 c 0.06166,-0.0132 0.04992,0.17765 0.04992,0.17765 0,0.025 0.0088,0.16591 -0.04992,0.17766 -0.06607,-0.009 -0.04698,-0.17766 -0.04698,-0.17766 0,0 -0.0088,-0.18059 0.04698,-0.17765 z"
       id="path24"
       style="stroke-width:0.014682;fill:#ffce54;fill-opacity:1" /><path
       class="st3"
       d="m 67.964568,141.40207 1.149603,0.009 m -0.505062,0.45514 0.164439,-0.45808 m -0.0015,0 -0.161503,-0.44927"
       id="path26"
       style="stroke-width:0.014682" /><path
       class="st3"
       d="m 67.600454,139.92506 c 0,0 -0.566727,1.25237 -0.819258,0.65188 0,0 0.07194,0.0279 0.127734,-0.0279 0.04992,-0.0499 0.04405,-0.0969 -0.01321,-0.1659 -0.06166,-0.0749 -0.239317,-0.0411 -0.274554,0.047 -0.08075,0.20555 0.111584,0.47717 0.2863,0.46395 0.461016,-0.0308 0.510934,-0.52415 0.816321,-0.94405 0.01615,-0.0279 -0.123329,-0.025 -0.123329,-0.025 z"
       id="path28"
       style="stroke-width:0.014682;fill:#ffce54;fill-opacity:1" /><path
       class="st3"
       d="m 67.609263,138.48475 c 0,0 -0.566726,-1.25238 -0.819257,-0.65188 0,0 0.07194,-0.0279 0.127733,0.0279 0.04992,0.0499 0.04405,0.0969 -0.01321,0.16591 -0.06166,0.0749 -0.239317,0.0411 -0.274554,-0.047 -0.08075,-0.20555 0.111584,-0.47423 0.2863,-0.46395 0.461016,0.0308 0.510935,0.52415 0.816321,0.94405 0.01468,0.0279 -0.123329,0.025 -0.123329,0.025 z"
       id="path30"
       style="stroke-width:0.014682;fill:#ffce54;fill-opacity:1" /><path
       class="st3"
       d="m 69.510586,138.77839 c -0.08075,0.15563 -0.747316,0.4111 -0.747316,0.4111 0,0 0.648946,0.24666 0.738507,0.41109 l 0.0088,0.24079 c -0.330346,-0.44927 -0.660692,-0.49185 -0.916159,-0.50506 -0.180589,-0.009 -0.164439,0.0969 -0.13067,0.13948 0.296577,0.37733 -0.08662,0.48597 -0.143884,0.7987 -0.0029,0.0162 -0.04698,-0.0529 -0.06166,-0.14388 -0.0088,-0.0587 0.0088,-0.14682 0.0088,-0.14682 -0.133607,0.21876 -0.299514,0.044 -0.402288,0.26427 0,0 -0.02202,-0.0338 -0.03377,-0.044 -0.03083,-0.0279 -0.124798,-0.0132 -0.13948,-0.26134 0,-0.009 -0.108647,0.0191 -0.108647,0.0191 0.06166,-0.20555 0.585813,-0.43312 0.44927,-0.56966 -0.155629,-0.14976 -0.165907,0.32154 -0.40816,0.35531 -0.01321,0.003 0.0367,-0.13655 0.0367,-0.13655 -0.11452,0.006 -0.164439,0.13655 -0.174716,0.21436 l -0.0279,-0.0719 c -0.108647,-0.0617 0.0279,-0.36852 -0.02202,-0.42138 -0.03817,-0.0411 -0.168843,0.12774 -0.224635,0.15563 -0.05579,0.0279 -0.371456,0.0279 -0.215826,0.21877 0.01175,0.0162 -0.03083,-0.0866 0.04111,-0.0998 0.08075,-0.0132 0.07781,0.0807 0.07781,0.0881 0,0.0382 -0.07194,0.13654 -0.186461,0.0807 -0.0059,-0.003 -0.215826,-0.15563 0.05873,-0.37439 0,0 -0.168844,0.10277 -0.34356,-0.0808 -0.03817,-0.0382 -0.08809,-0.0881 -0.149756,-0.12774 0.06166,-0.0382 0.10571,-0.0837 0.143883,-0.12479 0.177653,-0.18646 0.34356,-0.0837 0.34356,-0.0837 -0.274554,-0.21583 -0.06607,-0.36852 -0.05873,-0.37146 0.111583,-0.0558 0.183525,0.0411 0.186462,0.0808 0,0.009 0.0029,0.10277 -0.07782,0.0881 -0.07194,-0.0132 -0.03083,-0.11452 -0.04111,-0.0998 -0.155629,0.19087 0.161503,0.19087 0.218762,0.21876 0.05579,0.0279 0.186462,0.19674 0.224636,0.15563 0.04992,-0.0529 -0.08809,-0.36118 0.02202,-0.42137 l 0.02496,-0.0719 c 0.01321,0.0778 0.06313,0.20848 0.177653,0.21435 0,0 -0.04992,-0.13948 -0.03671,-0.13654 0.240786,0.0308 0.255468,0.50506 0.408161,0.35237 0.136543,-0.13361 -0.389074,-0.36118 -0.44927,-0.56673 0,0 0.108647,0.0279 0.108647,0.0191 0.01321,-0.2496 0.108647,-0.23638 0.136543,-0.26428 0.01174,-0.0117 0.03083,-0.044 0.03083,-0.044 0.102774,0.21876 0.271618,0.0411 0.402288,0.26134 0,0 -0.01909,-0.0881 -0.01175,-0.14682 0.01321,-0.091 0.05873,-0.15857 0.06166,-0.14389 0.06167,0.3142 0.443398,0.41844 0.146821,0.79724 -0.03377,0.0411 -0.04992,0.14682 0.133606,0.13948 0.255468,-0.0132 0.585813,-0.0587 0.913223,-0.508 z"
       id="path32"
       style="stroke-width:0.014682;fill:#ffce54;fill-opacity:1" /><path
       class="st4"
       d="m 67.459506,139.75034 c 0.0367,-0.30538 0.293641,-0.40522 0.289236,-0.55498 -0.0059,-0.14976 -0.265745,-0.30539 -0.296577,-0.56085 m 0.365583,1.5607 c -0.202612,-0.42138 0.44927,-0.56379 0.430183,-0.99985 -0.01909,-0.41403 -0.638668,-0.59609 -0.43312,-1.00425 m 0.941118,1.00131 h -2.265437"
       id="path34"
       style="stroke-width:0.014682" /><path
       class="st3"
       d="m 67.581367,135.53073 c 0,0 -0.566726,1.25237 -0.819257,0.65188 0,0 0.07194,0.0279 0.127733,-0.0279 0.04992,-0.0499 0.04405,-0.0969 -0.01321,-0.1659 -0.06167,-0.0749 -0.239318,-0.0411 -0.274554,0.047 -0.08075,0.20555 0.111583,0.47716 0.286299,0.46395 0.461016,-0.0308 0.510935,-0.52415 0.816321,-0.94405 0.01615,-0.0279 -0.123329,-0.025 -0.123329,-0.025 z"
       id="path36"
       style="stroke-width:0.014682;fill:#ffce54;fill-opacity:1" /><path
       class="st3"
       d="m 67.590176,134.09042 c 0,0 -0.566726,-1.25238 -0.819257,-0.65188 0,0 0.07194,-0.0279 0.127734,0.0279 0.04992,0.0499 0.04405,0.0969 -0.01321,0.16591 -0.06167,0.0749 -0.239317,0.0411 -0.274554,-0.047 -0.08075,-0.20555 0.111583,-0.47717 0.286299,-0.46396 0.45808,0.0338 0.510935,0.52415 0.816321,0.947 0.01762,0.025 -0.123329,0.022 -0.123329,0.022 z"
       id="path38"
       style="stroke-width:0.014682;fill:#ffce54;fill-opacity:1" /><path
       class="st3"
       d="m 69.491499,134.38553 c -0.08075,0.15563 -0.747315,0.41109 -0.747315,0.41109 0,0 0.648946,0.24666 0.738506,0.4111 l 0.0088,0.24079 c -0.330346,-0.44927 -0.660691,-0.49185 -0.916159,-0.50507 -0.183525,-0.009 -0.164438,0.0969 -0.13067,0.13948 0.296577,0.37733 -0.08662,0.48598 -0.143884,0.79871 -0.0029,0.0162 -0.04698,-0.0529 -0.06166,-0.14389 -0.0088,-0.0587 0.0088,-0.14682 0.0088,-0.14682 -0.133606,0.21876 -0.299513,0.044 -0.402287,0.26134 0,0 -0.02202,-0.0338 -0.03377,-0.044 -0.03083,-0.0279 -0.124797,-0.0132 -0.139479,-0.26134 0,-0.009 -0.108647,0.0191 -0.108647,0.0191 0.06166,-0.20555 0.585813,-0.43312 0.44927,-0.56966 -0.15563,-0.14976 -0.165907,0.32154 -0.408161,0.35531 -0.01321,0.003 0.03671,-0.13655 0.03671,-0.13655 -0.11452,0.006 -0.164438,0.13655 -0.174716,0.21436 l -0.0279,-0.0719 c -0.108647,-0.0617 0.02496,-0.36852 -0.02202,-0.42138 -0.03817,-0.0411 -0.168843,0.12774 -0.224635,0.15563 -0.05579,0.0279 -0.371455,0.0279 -0.215826,0.21877 0.01175,0.0162 -0.03083,-0.0866 0.04111,-0.0998 0.08075,-0.0132 0.07782,0.0808 0.07782,0.0881 0,0.0382 -0.07194,0.13654 -0.186462,0.0807 -0.0059,-0.003 -0.215826,-0.15563 0.05873,-0.37439 0,0 -0.168843,0.10277 -0.343559,-0.0807 -0.03817,-0.0382 -0.08809,-0.0881 -0.149757,-0.12774 0.06166,-0.0382 0.105711,-0.0837 0.143884,-0.12479 0.177652,-0.18353 0.343559,-0.0837 0.343559,-0.0837 -0.274554,-0.21583 -0.06607,-0.36852 -0.05873,-0.37146 0.11452,-0.0558 0.183526,0.0411 0.186462,0.0808 0,0.009 0.0029,0.10277 -0.07782,0.0881 -0.07194,-0.0132 -0.03083,-0.11452 -0.04111,-0.0998 -0.15563,0.19087 0.161502,0.19087 0.218762,0.21876 0.05579,0.0279 0.186462,0.19674 0.224635,0.15563 0.04992,-0.0529 -0.08662,-0.36118 0.02202,-0.42137 l 0.02496,-0.0719 c 0.01321,0.0778 0.06313,0.20848 0.177653,0.21435 0,0 -0.04992,-0.13948 -0.0367,-0.13654 0.240785,0.0308 0.255467,0.50506 0.40816,0.35237 0.136543,-0.13361 -0.389074,-0.36118 -0.44927,-0.56673 0,0 0.108647,0.0279 0.108647,0.0191 0.01321,-0.2496 0.108647,-0.23638 0.136543,-0.26428 0.01175,-0.0117 0.03083,-0.044 0.03083,-0.044 0.102775,0.21876 0.271618,0.0411 0.402288,0.26134 0,0 -0.01909,-0.0881 -0.01175,-0.14682 0.01321,-0.091 0.05873,-0.15857 0.06166,-0.14389 0.06166,0.3142 0.443397,0.41844 0.14682,0.79724 -0.03377,0.0411 -0.04992,0.14975 0.133607,0.13948 0.255467,-0.0132 0.585813,-0.0587 0.913222,-0.508 z"
       id="path40"
       style="stroke-width:0.014682;fill:#ffce54;fill-opacity:1" /><path
       class="st4"
       d="m 67.44042,135.35601 c 0.0367,-0.30539 0.29364,-0.40522 0.289236,-0.55498 -0.0059,-0.14976 -0.265745,-0.30539 -0.296577,-0.56085 m 0.36705,1.5607 c -0.202612,-0.42138 0.44927,-0.56379 0.430184,-0.99985 -0.01909,-0.41403 -0.638669,-0.59609 -0.43312,-1.00425 m 0.941118,1.00131 h -2.263969"
       id="path42"
       style="stroke-width:0.014682" /><path
       class="st3"
       d="m 68.531294,136.88294 c -0.07194,-0.19674 -0.280426,-0.25253 -0.399351,-0.25547 -0.133606,-0.006 -0.342091,0.17766 -0.469825,0.25547 -0.11452,0.069 -0.3186,-0.022 -0.352369,-0.10277 -0.07194,-0.17766 0.04111,-0.21142 0.0969,-0.20262 0,0 -0.06607,0.12774 0.04405,0.11159 0.069,-0.0118 0.08809,-0.11452 0.07488,-0.15563 -0.02202,-0.0837 -0.139479,-0.0749 -0.186461,-0.0617 -0.152694,0.0441 -0.127734,0.25841 -0.07488,0.33916 0.07488,0.12186 0.264277,0.13948 0.383201,0.12186 0.180589,-0.0279 0.330346,-0.21436 0.438993,-0.20848 0.0279,0 0.05873,0.0998 0.03083,0.10571 -0.183525,0.0338 -0.158566,0.16443 -0.158566,0.16443 v 0.003 c 0,0 -0.02496,0.12773 0.158566,0.1615 0.0279,0.006 -0.0088,0.10865 -0.0367,0.10865 -0.108647,0.006 -0.249594,-0.18646 -0.43312,-0.21142 -0.118924,-0.0161 -0.308322,0 -0.383201,0.12186 -0.04992,0.0807 -0.07488,0.29364 0.07488,0.33915 0.04698,0.0132 0.164438,0.022 0.189398,-0.0617 0.01174,-0.0411 -0.0059,-0.14682 -0.07488,-0.15563 -0.111583,-0.0162 -0.04405,0.11158 -0.04405,0.11158 -0.05579,0.0118 -0.168843,-0.025 -0.0969,-0.20261 0.03377,-0.0807 0.239317,-0.17178 0.352369,-0.10277 0.127733,0.0778 0.336218,0.26134 0.469825,0.25547 0.118924,-0.006 0.327409,-0.0587 0.399351,-0.25547 v -0.2217 h -0.0029 z"
       id="path44"
       style="stroke-width:0.014682;fill:#ffce54;fill-opacity:1" /><path
       class="st3"
       d="m 69.451858,136.75227 c -0.02496,0.13067 -0.355305,0.24372 -0.355305,0.24372 0,0 0.324472,0.16885 0.368518,0.30539 l -0.0088,0.15856 c -0.10571,-0.35824 -0.507998,-0.38613 -0.507998,-0.38613 0.08662,0.12186 0.161502,0.28923 -0.04405,0.45514 0,0 0.06166,-0.15563 0.03083,-0.19087 0,0 -0.0279,0.0969 -0.143884,0.18647 -0.04698,0.0382 -0.177652,0.0308 -0.23638,0.0661 l 0.04992,-0.15856 c -0.06166,0.12773 -0.233444,0.14388 -0.233444,0.14388 -0.01175,-0.044 -0.0059,-0.14975 0.04992,-0.2305 0.09984,-0.1527 0.07488,-0.26428 0.07488,-0.26428 -0.08662,0.19086 -0.427247,0.20848 -0.491848,0.1615 -0.0088,-0.006 0.07488,-0.0881 0.07488,-0.0881 -0.03083,0.006 -0.115988,-0.0558 -0.11452,-0.0719 0.0029,-0.025 0.05873,-0.0778 0.06901,-0.094 0,0 -0.06313,-0.0529 -0.06607,-0.0778 -0.0029,-0.0162 0.08369,-0.0778 0.11452,-0.072 0,0 -0.08662,-0.0837 -0.07488,-0.0881 0.06313,-0.047 0.405224,-0.0308 0.491848,0.16151 0,0 0.02496,-0.10865 -0.07782,-0.26428 -0.05285,-0.0807 -0.05873,-0.1894 -0.04698,-0.23051 0,0 0.174716,0.0162 0.233444,0.14388 l -0.04992,-0.15856 c 0.05873,0.0338 0.189398,0.0279 0.236381,0.0661 0.115988,0.0881 0.143884,0.18646 0.143884,0.18646 0.03083,-0.0367 -0.03083,-0.19087 -0.03083,-0.19087 0.205549,0.16591 0.13067,0.33329 0.04405,0.45515 0,0 0.405224,-0.0279 0.507999,-0.38614 z"
       id="path46"
       style="stroke-width:0.014682;fill:#ffce54;fill-opacity:1" /><path
       class="st3"
       d="m 67.540257,137.04151 c -0.111583,0.003 -0.264276,0.0808 -0.402287,0.0617 -0.09984,-0.0132 -0.277491,-0.1336 -0.277491,-0.1336 0,0 0.180589,-0.094 0.271618,-0.11452 0.14682,-0.0338 0.29364,0.094 0.405224,0.0969 0.01909,0 0.02496,0.0866 0.0029,0.0896 z"
       id="path48"
       style="stroke-width:0.014682;fill:#ffce54;fill-opacity:1" /><path
       class="st3"
       d="m 67.543194,136.81687 c 0.06166,-0.0132 0.04992,0.17472 0.04992,0.17472 0,0.0279 0.0088,0.16591 -0.04992,0.17765 -0.06607,-0.009 -0.04698,-0.17765 -0.04698,-0.17765 0,0 -0.0088,-0.17765 0.04698,-0.17472 z"
       id="path50"
       style="stroke-width:0.014682;fill:#ffce54;fill-opacity:1" /><path
       class="st3"
       d="m 67.955759,136.99159 1.149603,0.009 m -0.507999,0.4522 0.164439,-0.45808 m 0.0015,0 -0.161502,-0.44927"
       id="path52"
       style="stroke-width:0.014682" /><path
       class="st3"
       d="m 69.485626,142.73373 c -0.11452,-0.30539 -0.524148,-0.27162 -0.524148,-0.27162 0,0 0.411097,0.003 0.516807,-0.3553 z"
       id="path54"
       style="stroke-width:0.014682;fill:#ffce54;fill-opacity:1" /><path
       class="st3"
       d="m 69.485626,144.55871 c -0.11452,0.30538 -0.524148,0.27161 -0.524148,0.27161 0,0 0.411097,-0.003 0.516807,0.35531 z"
       id="path56"
       style="stroke-width:0.014682;fill:#ffce54;fill-opacity:1" /><path
       class="st3"
       d="m 68.538635,144.83913 c 0,0 0.168844,0.13655 0.283364,0.10865 0,0 -0.130671,0.1248 -0.02202,0.22464 0,0 0.03377,-0.13067 0.189399,-0.1527 0.13067,-0.0191 0.183525,-0.12773 0.183525,-0.18059 v 0.003 c 0.0029,-0.0529 -0.04992,-0.15857 -0.183525,-0.18059 -0.15563,-0.025 -0.189399,-0.15269 -0.189399,-0.15269 -0.108647,0.0969 0.02202,0.22463 0.02202,0.22463 -0.113052,-0.0279 -0.283364,0.10571 -0.283364,0.10571 z"
       id="path58"
       style="stroke-width:0.014682;fill:#ffce54;fill-opacity:1" /><path
       class="st3"
       d="m 69.470944,140.0939 c -0.11452,0.30539 -0.524148,0.27162 -0.524148,0.27162 0,0 0.411097,-0.003 0.516807,0.3553 z"
       id="path60"
       style="stroke-width:0.014682;fill:#ffce54;fill-opacity:1" /><path
       class="st3"
       d="m 69.485626,138.32618 c -0.11452,-0.30538 -0.524148,-0.27161 -0.524148,-0.27161 0,0 0.411097,0.003 0.516807,-0.35531 z"
       id="path62"
       style="stroke-width:0.014682;fill:#ffce54;fill-opacity:1" /><path
       class="st3"
       d="m 69.485626,135.65846 c -0.11452,0.30539 -0.524148,0.27162 -0.524148,0.27162 0,0 0.411097,-0.003 0.516807,0.3553 z"
       id="path64"
       style="stroke-width:0.014682;fill:#ffce54;fill-opacity:1" /><path
       class="st3"
       d="m 69.485626,133.90396 c -0.11452,-0.30539 -0.524148,-0.27162 -0.524148,-0.27162 0,0 0.411097,0.003 0.516807,-0.35531 z"
       id="path66"
       style="stroke-width:0.014682;fill:#ffce54;fill-opacity:1" /><rect
       x="69.457733"
       y="133.00542"
       class="st3"
       width="0.15269311"
       height="12.485599"
       id="rect68"
       style="stroke-width:0.014682;fill:#ffce54;fill-opacity:1" /><path
       class="st3"
       d="m 68.547445,142.44303 c 0,0 0.168843,0.13654 0.283363,0.10864 0,0 -0.13067,0.1248 -0.02202,0.22464 0,0 0.03377,-0.13067 0.189398,-0.1527 0.13067,-0.0191 0.183525,-0.12773 0.183525,-0.18058 v 0.003 c 0.0029,-0.0529 -0.04992,-0.15856 -0.183525,-0.18059 -0.15563,-0.025 -0.189398,-0.15269 -0.189398,-0.15269 -0.108647,0.0969 0.02202,0.22464 0.02202,0.22464 -0.11452,-0.0279 -0.283363,0.10571 -0.283363,0.10571 z"
       id="path70"
       style="stroke-width:0.014682;fill:#ffce54;fill-opacity:1" /><path
       class="st3"
       d="m 68.538635,140.36992 c 0,0 0.168844,0.13655 0.283364,0.10865 0,0 -0.130671,0.1248 -0.02202,0.22464 0,0 0.03377,-0.13067 0.189399,-0.1527 0.13067,-0.0191 0.183525,-0.12773 0.183525,-0.18059 v 0.003 c 0.0029,-0.0529 -0.04992,-0.15857 -0.183525,-0.18059 -0.15563,-0.025 -0.189399,-0.15269 -0.189399,-0.15269 -0.108647,0.0969 0.02202,0.22463 0.02202,0.22463 -0.113052,-0.0279 -0.283364,0.10571 -0.283364,0.10571 z"
       id="path72"
       style="stroke-width:0.014682;fill:#ffce54;fill-opacity:1" /><path
       class="st3"
       d="m 68.547445,138.0575 c 0,0 0.168843,0.13655 0.283363,0.10865 0,0 -0.13067,0.1248 -0.02202,0.22464 0,0 0.03377,-0.13067 0.189398,-0.1527 0.13067,-0.0191 0.183525,-0.12773 0.183525,-0.18059 v 0.003 c 0.0029,-0.0529 -0.04992,-0.15857 -0.183525,-0.18059 -0.15563,-0.025 -0.189398,-0.15269 -0.189398,-0.15269 -0.108647,0.0969 0.02202,0.22463 0.02202,0.22463 -0.11452,-0.0279 -0.283363,0.10571 -0.283363,0.10571 z"
       id="path74"
       style="stroke-width:0.014682;fill:#ffce54;fill-opacity:1" /><path
       class="st3"
       d="m 68.547445,135.93155 c 0,0 0.168843,0.13654 0.283363,0.10864 0,0 -0.13067,0.1248 -0.02202,0.22464 0,0 0.03377,-0.13067 0.189398,-0.1527 0.13067,-0.0191 0.183525,-0.12773 0.183525,-0.18058 v 0.003 c 0.0029,-0.0529 -0.04992,-0.15856 -0.183525,-0.18059 -0.15563,-0.025 -0.189398,-0.15269 -0.189398,-0.15269 -0.108647,0.0969 0.02202,0.22463 0.02202,0.22463 -0.11452,-0.0279 -0.283363,0.10572 -0.283363,0.10572 z"
       id="path76"
       style="stroke-width:0.014682;fill:#ffce54;fill-opacity:1" /><path
       class="st3"
       d="m 68.557722,133.62647 c 0,0 0.168843,0.13654 0.283363,0.10864 0,0 -0.13067,0.1248 -0.02202,0.22464 0,0 0.03377,-0.13067 0.189398,-0.15269 0.13067,-0.0191 0.183526,-0.12774 0.183526,-0.18059 v 0.003 c 0.0029,-0.0529 -0.04992,-0.15856 -0.183526,-0.18059 -0.155629,-0.025 -0.189398,-0.15269 -0.189398,-0.15269 -0.108647,0.0969 0.02202,0.22464 0.02202,0.22464 -0.113051,-0.0264 -0.283363,0.10571 -0.283363,0.10571 z"
       id="path78"
       style="stroke-width:0.014682;fill:#ffce54;fill-opacity:1" /><path
       class="st5"
       d="m 70.467854,144.77747 c 0,0.11452 -0.09396,0.20848 -0.208485,0.20848 -0.11452,0 -0.208485,-0.091 -0.208485,-0.20848 0,-0.11452 0.09396,-0.20849 0.208485,-0.20849 0.117457,0 0.208485,0.094 0.208485,0.20849 z"
       id="path80"
       style="stroke-width:0.014682" /><path
       class="st5"
       d="m 70.467854,142.01284 c 0,0.11452 -0.09396,0.20849 -0.208485,0.20849 -0.11452,0 -0.208485,-0.091 -0.208485,-0.20849 0,-0.11452 0.09396,-0.20848 0.208485,-0.20848 0.117457,0.003 0.208485,0.094 0.208485,0.20848 z"
       id="path82"
       style="stroke-width:0.014682" /><path
       class="st5"
       d="m 70.467854,139.25115 c 0,0.11452 -0.09396,0.20849 -0.208485,0.20849 -0.11452,0 -0.208485,-0.091 -0.208485,-0.20849 0,-0.11452 0.09396,-0.20848 0.208485,-0.20848 0.117457,0 0.208485,0.091 0.208485,0.20848 z"
       id="path84"
       style="stroke-width:0.014682" /><path
       class="st5"
       d="m 70.467854,136.48653 c 0,0.11452 -0.09396,0.20848 -0.208485,0.20848 -0.11452,0 -0.208485,-0.091 -0.208485,-0.20848 0,-0.11452 0.09396,-0.20849 0.208485,-0.20849 0.117457,0 0.208485,0.094 0.208485,0.20849 z"
       id="path86"
       style="stroke-width:0.014682" /><path
       class="st5"
       d="m 70.467854,133.72484 c 0,0.11452 -0.09396,0.20848 -0.208485,0.20848 -0.11452,0 -0.208485,-0.091 -0.208485,-0.20848 0,-0.11452 0.09396,-0.20849 0.208485,-0.20849 0.117457,0 0.208485,0.091 0.208485,0.20849 z"
       id="path88"
       style="stroke-width:0.014682" /><polygon
       class="st3"
       points="352.6,142.4 376,118.9 399.5,142.4 376,165.6 "
       id="polygon90"
       transform="matrix(0.01468203,0,0,0.01468203,64.738926,133.02744)"
       style="fill:#ffce54;fill-opacity:1" /><polygon
       class="st6"
       points="354.3,142.4 361.3,149.5 368.7,149.5 368.7,156.9 375.9,163.9 376.2,163.9 383.2,156.9 383.2,149.5 390.6,149.5 397.8,142.4 397.8,142.2 390.6,135 383.2,135 383.2,127.6 376.2,120.6 375.9,120.6 368.7,127.6 368.7,135 361.3,135 354.3,142.2 "
       id="polygon92"
       transform="matrix(0.01468203,0,0,0.01468203,64.738926,133.02744)"
       style="fill:#b42b39;fill-opacity:1" /><path
       class="st3"
       d="m 70.115485,134.84214 c 0.01615,0.0162 0,0.0587 -0.03671,0.091 -0.0367,0.0367 -0.07781,0.0529 -0.09103,0.0367 -0.01615,-0.0161 0,-0.0558 0.0367,-0.091 0.0323,-0.0367 0.07488,-0.0529 0.09103,-0.0367 z"
       id="path94"
       style="stroke-width:0.014682;fill:#ffce54;fill-opacity:1" /><path
       class="st3"
       d="m 70.404721,134.84214 c -0.01615,0.0162 0,0.0587 0.03671,0.091 0.03671,0.0367 0.07781,0.0529 0.09103,0.0367 0.01615,-0.0161 0,-0.0558 -0.0367,-0.091 -0.03377,-0.0367 -0.07488,-0.0529 -0.09103,-0.0367 z"
       id="path96"
       style="stroke-width:0.014682;fill:#ffce54;fill-opacity:1" /><path
       class="st3"
       d="m 70.404721,135.38978 c -0.01615,-0.0162 0,-0.0558 0.03671,-0.091 0.03671,-0.0367 0.07781,-0.0529 0.09103,-0.0367 0.01615,0.0162 0,0.0587 -0.0367,0.091 -0.03377,0.0338 -0.07488,0.0499 -0.09103,0.0367 z"
       id="path98"
       style="stroke-width:0.014682;fill:#ffce54;fill-opacity:1" /><path
       class="st3"
       d="m 70.115485,135.38978 c -0.01615,0.0162 -0.05873,0 -0.09103,-0.0367 -0.0367,-0.0367 -0.05286,-0.0778 -0.0367,-0.091 0.01615,-0.0162 0.05873,0 0.09103,0.0367 0.03377,0.0323 0.05139,0.0749 0.03671,0.091 z"
       id="path100"
       style="stroke-width:0.014682;fill:#ffce54;fill-opacity:1" /><path
       class="st3"
       d="m 70.15219,134.72615 c 0,-0.0161 0.03817,-0.0338 0.08662,-0.0382 0.0088,0 0.02202,-0.0118 0.02202,-0.0118 0,0 0.01321,0.0118 0.01909,0.0118 0.04992,0.003 0.08809,0.0191 0.08809,0.0382 0,0.022 -0.04992,0.0382 -0.111583,0.0382 -0.05726,0.001 -0.104243,-0.0191 -0.104243,-0.0382 z"
       id="path102"
       style="stroke-width:0.014682;fill:#ffce54;fill-opacity:1" /><path
       class="st3"
       d="m 70.370953,135.50577 c 0,0.0161 -0.03817,0.0338 -0.08662,0.0382 -0.0088,0 -0.02202,0.0118 -0.02202,0.0118 0,0 -0.01321,-0.0118 -0.01909,-0.0118 -0.04992,-0.003 -0.08809,-0.0191 -0.08809,-0.0382 0,-0.022 0.04992,-0.0382 0.111583,-0.0382 0.05432,0 0.104243,0.0191 0.104243,0.0382 z"
       id="path104"
       style="stroke-width:0.014682;fill:#ffce54;fill-opacity:1" /><path
       class="st3"
       d="m 69.865891,135.22534 c -0.01615,0 -0.03377,-0.0382 -0.03817,-0.0866 0,-0.009 -0.01175,-0.022 -0.01175,-0.022 0,0 0.01175,-0.0132 0.01175,-0.0191 0.0029,-0.0499 0.01909,-0.0881 0.03817,-0.0881 0.02202,0 0.03817,0.0499 0.03817,0.10865 0.0029,0.0573 -0.01615,0.10718 -0.03817,0.10718 z"
       id="path106"
       style="stroke-width:0.014682;fill:#ffce54;fill-opacity:1" /><path
       class="st3"
       d="m 70.654316,135.00658 c 0.01615,0 0.03377,0.0382 0.03817,0.0866 0,0.009 0.01175,0.022 0.01175,0.022 0,0 -0.01175,0.0132 -0.01175,0.0191 -0.0029,0.0499 -0.01909,0.0881 -0.03817,0.0881 -0.02202,0 -0.03817,-0.0499 -0.03817,-0.10864 -0.0015,-0.0573 0.01615,-0.10718 0.03817,-0.10718 z"
       id="path108"
       style="stroke-width:0.014682;fill:#ffce54;fill-opacity:1" /><path
       class="st3"
       d="m 70.199173,138.3438 c 0,0.0338 0.0279,0.0617 0.06166,0.0617 0.03377,0 0.06313,-0.0279 0.06313,-0.0617 0,-0.0338 -0.0279,-0.0617 -0.06313,-0.0617 -0.03377,-0.003 -0.06166,0.025 -0.06166,0.0617 z"
       id="path110"
       style="stroke-width:0.014682" /><path
       class="st3"
       d="m 70.199173,137.36892 c 0,0.0338 0.0279,0.0617 0.06166,0.0617 0.03377,0 0.06313,-0.0279 0.06313,-0.0617 0,-0.0338 -0.0279,-0.0617 -0.06313,-0.0617 -0.03377,-0.003 -0.06166,0.025 -0.06166,0.0617 z"
       id="path112"
       style="stroke-width:0.014682" /><path
       class="st3"
       d="m 70.489877,137.85783 c 0,0.22463 -0.102774,0.40816 -0.233444,0.40816 -0.127734,0 -0.233444,-0.18353 -0.233444,-0.40816 0,-0.22464 0.102774,-0.4111 0.233444,-0.4111 0.13067,0 0.233444,0.18353 0.233444,0.4111 z"
       id="path114"
       style="stroke-width:0.014682" /><path
       class="st7"
       d="m 70.45464,137.85196 c 0,-0.19381 -0.07781,-0.35237 -0.174716,-0.37146 -0.0059,0 -0.01909,0.025 -0.01909,0.025 0,0 -0.01321,-0.025 -0.01909,-0.025 -0.0969,0.0191 -0.174716,0.17765 -0.174716,0.37146 0,0 0,0 0,0.003 0,0 0,0 0,0.003 0,0.1938 0.07781,0.35237 0.174716,0.37145 0.0059,0 0.01909,-0.025 0.01909,-0.025 0,0 0.01321,0.025 0.01909,0.025 0.0969,-0.0191 0.174716,-0.17765 0.174716,-0.37145 0,0 0,0 0,-0.003 0,0 0,0 0,-0.003 z"
       id="path116"
       style="stroke-width:0.014682;fill:#007e3a;fill-opacity:1" /><path
       class="st3"
       d="m 70.564756,137.85783 c 0,-0.0162 -0.01321,-0.0308 -0.03083,-0.0308 -0.01615,0 -0.03083,0.0132 -0.03083,0.0308 0,0.0161 0.01321,0.0308 0.03083,0.0308 0.01762,-0.001 0.03083,-0.0147 0.03083,-0.0308 z"
       id="path118"
       style="stroke-width:0.014682" /><path
       class="st3"
       d="m 70.015648,137.85783 c 0,-0.0162 -0.01321,-0.0308 -0.03083,-0.0308 -0.01762,0 -0.03083,0.0132 -0.03083,0.0308 0,0.0161 0.01321,0.0308 0.03083,0.0308 0.01762,0 0.03083,-0.0147 0.03083,-0.0308 z"
       id="path120"
       style="stroke-width:0.014682" /><path
       class="st3"
       d="m 70.460513,138.21754 c 0,-0.0162 -0.01321,-0.0308 -0.03083,-0.0308 -0.01762,0 -0.03083,0.0132 -0.03083,0.0308 0,0.0161 0.01321,0.0308 0.03083,0.0308 0.01762,0 0.03083,-0.0132 0.03083,-0.0308 z"
       id="path122"
       style="stroke-width:0.014682" /><path
       class="st3"
       d="m 70.121358,138.21754 c 0,-0.0162 -0.01321,-0.0308 -0.03083,-0.0308 -0.01615,0 -0.03083,0.0132 -0.03083,0.0308 0,0.0161 0.01321,0.0308 0.03083,0.0308 0.01615,0 0.03083,-0.0132 0.03083,-0.0308 z"
       id="path124"
       style="stroke-width:0.014682" /><path
       class="st3"
       d="m 70.037671,138.04576 c 0,-0.0338 -0.0279,-0.0617 -0.06167,-0.0617 -0.03377,0 -0.06313,0.0279 -0.06313,0.0617 0,0.0338 0.0279,0.0617 0.06313,0.0617 0.03377,0 0.06167,-0.0279 0.06167,-0.0617 z"
       id="path126"
       style="stroke-width:0.014682" /><path
       class="st3"
       d="m 70.607333,138.04282 c 0,-0.0338 -0.0279,-0.0617 -0.06166,-0.0617 -0.03377,0 -0.06167,0.0279 -0.06167,0.0617 0,0.0338 0.0279,0.0617 0.06167,0.0617 0.03377,0 0.06166,-0.0279 0.06166,-0.0617 z"
       id="path128"
       style="stroke-width:0.014682" /><path
       class="st3"
       d="m 70.059694,137.49371 c 0,0.0162 0.01321,0.0308 0.03083,0.0308 0.01615,0 0.03083,-0.0132 0.03083,-0.0308 0,-0.0176 -0.01321,-0.0308 -0.03083,-0.0308 -0.01615,-0.003 -0.03083,0.0117 -0.03083,0.0308 z"
       id="path130"
       style="stroke-width:0.014682" /><path
       class="st3"
       d="m 70.398849,137.49371 c 0,0.0162 0.01321,0.0308 0.03083,0.0308 0.01762,0 0.03083,-0.0132 0.03083,-0.0308 0,-0.0176 -0.01321,-0.0308 -0.03083,-0.0308 -0.01762,-0.003 -0.03083,0.0117 -0.03083,0.0308 z"
       id="path132"
       style="stroke-width:0.014682" /><path
       class="st3"
       d="m 70.482536,137.66549 c 0,0.0338 0.0279,0.0617 0.06167,0.0617 0.03377,0 0.06166,-0.0279 0.06166,-0.0617 0,-0.0338 -0.0279,-0.0617 -0.06166,-0.0617 -0.03377,0 -0.06167,0.0264 -0.06167,0.0617 z"
       id="path134"
       style="stroke-width:0.014682" /><path
       class="st3"
       d="m 69.912873,137.66549 c 0,0.0338 0.0279,0.0617 0.06313,0.0617 0.03377,0 0.06167,-0.0279 0.06167,-0.0617 0,-0.0338 -0.0279,-0.0617 -0.06167,-0.0617 -0.03524,0.001 -0.06313,0.0294 -0.06313,0.0617 z"
       id="path136"
       style="stroke-width:0.014682" /><path
       class="st3"
       d="m 70.199173,143.8246 c 0,0.0338 0.0279,0.0617 0.06166,0.0617 0.03377,0 0.06313,-0.0279 0.06313,-0.0617 0,-0.0338 -0.0279,-0.0617 -0.06313,-0.0617 -0.03377,0.001 -0.06166,0.0294 -0.06166,0.0617 z"
       id="path138"
       style="stroke-width:0.014682;fill:#ffce54;fill-opacity:1" /><path
       class="st3"
       d="m 70.199173,142.85119 c 0,0.0338 0.0279,0.0617 0.06166,0.0617 0.03377,0 0.06313,-0.0279 0.06313,-0.0617 0,-0.0338 -0.0279,-0.0617 -0.06313,-0.0617 -0.03377,0 -0.06166,0.0279 -0.06166,0.0617 z"
       id="path140"
       style="stroke-width:0.014682;fill:#ffce54;fill-opacity:1" /><path
       class="st3"
       d="m 70.489877,143.3401 c 0,0.22463 -0.102774,0.41109 -0.233444,0.41109 -0.127734,0 -0.233444,-0.18352 -0.233444,-0.41109 0,-0.22464 0.102774,-0.40816 0.233444,-0.40816 0.13067,0 0.233444,0.18205 0.233444,0.40816 z"
       id="path142"
       style="stroke-width:0.014682;fill:#ffce54;fill-opacity:1" /><path
       class="st7"
       d="m 70.45464,143.33716 c 0,-0.1938 -0.07781,-0.35237 -0.174716,-0.37145 -0.0059,0 -0.01909,0.025 -0.01909,0.025 0,0 -0.01321,-0.025 -0.01909,-0.025 -0.0969,0.0191 -0.174716,0.17765 -0.174716,0.37145 v 0.003 c 0,0 0,0 0,0.003 0,0.19381 0.07781,0.35237 0.174716,0.37146 0.0059,0 0.01909,-0.025 0.01909,-0.025 0,0 0.01321,0.025 0.01909,0.025 0.0969,-0.0191 0.174716,-0.17765 0.174716,-0.37146 0,0 0,0 0,-0.003 0,-0.003 0,-0.003 0,-0.003 z"
       id="path144"
       style="stroke-width:0.014682" /><path
       class="st3"
       d="m 70.564756,143.3401 c 0,-0.0162 -0.01321,-0.0308 -0.03083,-0.0308 -0.01615,0 -0.03083,0.0132 -0.03083,0.0308 0,0.0161 0.01321,0.0308 0.03083,0.0308 0.01762,-0.001 0.03083,-0.0147 0.03083,-0.0308 z"
       id="path146"
       style="stroke-width:0.014682;fill:#ffce54;fill-opacity:1" /><path
       class="st3"
       d="m 70.015648,143.3401 c 0,-0.0162 -0.01321,-0.0308 -0.03083,-0.0308 -0.01762,0 -0.03083,0.0132 -0.03083,0.0308 0,0.0161 0.01321,0.0308 0.03083,0.0308 0.01762,0 0.03083,-0.0147 0.03083,-0.0308 z"
       id="path148"
       style="stroke-width:0.014682;fill:#ffce54;fill-opacity:1" /><path
       class="st3"
       d="m 70.460513,143.69981 c 0,-0.0162 -0.01321,-0.0308 -0.03083,-0.0308 -0.01762,0 -0.03083,0.0132 -0.03083,0.0308 0,0.0176 0.01321,0.0308 0.03083,0.0308 0.01762,0 0.03083,-0.0132 0.03083,-0.0308 z"
       id="path150"
       style="stroke-width:0.014682;fill:#ffce54;fill-opacity:1" /><path
       class="st3"
       d="m 70.121358,143.69981 c 0,-0.0162 -0.01321,-0.0308 -0.03083,-0.0308 -0.01615,0 -0.03083,0.0132 -0.03083,0.0308 0,0.0176 0.01321,0.0308 0.03083,0.0308 0.01615,0 0.03083,-0.0132 0.03083,-0.0308 z"
       id="path152"
       style="stroke-width:0.014682;fill:#ffce54;fill-opacity:1" /><path
       class="st3"
       d="m 70.037671,143.52803 c 0,-0.0338 -0.0279,-0.0617 -0.06167,-0.0617 -0.03377,0 -0.06313,0.0279 -0.06313,0.0617 0,0.0338 0.0279,0.0617 0.06313,0.0617 0.03377,0 0.06167,-0.0279 0.06167,-0.0617 z"
       id="path154"
       style="stroke-width:0.014682;fill:#ffce54;fill-opacity:1" /><path
       class="st3"
       d="m 70.607333,143.52509 c 0,-0.0338 -0.0279,-0.0617 -0.06166,-0.0617 -0.03377,0 -0.06167,0.0279 -0.06167,0.0617 0,0.0338 0.0279,0.0617 0.06167,0.0617 0.03377,0 0.06166,-0.025 0.06166,-0.0617 z"
       id="path156"
       style="stroke-width:0.014682;fill:#ffce54;fill-opacity:1" /><path
       class="st3"
       d="m 70.059694,142.97598 c 0,0.0162 0.01321,0.0308 0.03083,0.0308 0.01615,0 0.03083,-0.0132 0.03083,-0.0308 0,-0.0161 -0.01321,-0.0308 -0.03083,-0.0308 -0.01615,0 -0.03083,0.0147 -0.03083,0.0308 z"
       id="path158"
       style="stroke-width:0.014682;fill:#ffce54;fill-opacity:1" /><path
       class="st3"
       d="m 70.398849,142.97598 c 0,0.0162 0.01321,0.0308 0.03083,0.0308 0.01762,0 0.03083,-0.0132 0.03083,-0.0308 0,-0.0161 -0.01321,-0.0308 -0.03083,-0.0308 -0.01762,0 -0.03083,0.0147 -0.03083,0.0308 z"
       id="path160"
       style="stroke-width:0.014682;fill:#ffce54;fill-opacity:1" /><path
       class="st3"
       d="m 70.482536,143.14776 c 0,0.0338 0.0279,0.0617 0.06167,0.0617 0.03377,0 0.06166,-0.0279 0.06166,-0.0617 0,-0.0338 -0.0279,-0.0617 -0.06166,-0.0617 -0.03377,0 -0.06167,0.0279 -0.06167,0.0617 z"
       id="path162"
       style="stroke-width:0.014682;fill:#ffce54;fill-opacity:1" /><path
       class="st3"
       d="m 69.912873,143.1507 c 0,0.0338 0.0279,0.0617 0.06313,0.0617 0.03377,0 0.06167,-0.0279 0.06167,-0.0617 0,-0.0338 -0.0279,-0.0617 -0.06167,-0.0617 -0.03524,-0.001 -0.06313,0.0249 -0.06313,0.0617 z"
       id="path164"
       style="stroke-width:0.014682;fill:#ffce54;fill-opacity:1" /><polygon
       class="st3"
       points="399.5,518.2 376,541.7 352.6,518.2 376,494.8 "
       id="polygon166"
       transform="matrix(0.01468203,0,0,0.01468203,64.738926,133.02744)"
       style="fill:#ffce54;fill-opacity:1" /><polygon
       class="st6"
       points="354.3,518.6 361.3,525.6 368.7,525.6 368.7,533 375.9,540 376.2,540 383.2,533 383.2,525.6 390.6,525.6 397.8,518.6 397.8,518.2 390.6,511.2 383.2,511.2 383.2,503.8 376.2,496.7 375.9,496.7 368.7,503.8 368.7,511.2 361.3,511.2 354.3,518.2 "
       id="polygon168"
       transform="matrix(0.01468203,0,0,0.01468203,64.738926,133.02744)"
       style="fill:#b42b39;fill-opacity:1" /><path
       class="st3"
       d="m 70.115485,140.36699 c 0.01615,0.0162 0,0.0558 -0.03671,0.091 -0.0367,0.0367 -0.07781,0.0529 -0.09103,0.0367 -0.01615,-0.0162 0,-0.0558 0.0367,-0.091 0.0323,-0.0367 0.07488,-0.0543 0.09103,-0.0367 z"
       id="path170"
       style="stroke-width:0.014682;fill:#ffce54;fill-opacity:1" /><path
       class="st3"
       d="m 70.404721,140.36405 c 0.01615,-0.0161 0.05873,0 0.09103,0.0367 0.0367,0.0367 0.05285,0.0778 0.0367,0.091 -0.01615,0.0161 -0.05873,0 -0.09103,-0.0367 -0.03671,-0.0323 -0.05432,-0.0749 -0.03671,-0.091 z"
       id="path172"
       style="stroke-width:0.014682;fill:#ffce54;fill-opacity:1" /><path
       class="st3"
       d="m 70.404721,140.91022 c -0.01615,-0.0162 0,-0.0558 0.03671,-0.091 0.03671,-0.0352 0.07781,-0.0528 0.09103,-0.0367 0.01615,0.0162 0,0.0558 -0.0367,0.091 -0.0367,0.0352 -0.07488,0.0543 -0.09103,0.0367 z"
       id="path174"
       style="stroke-width:0.014682;fill:#ffce54;fill-opacity:1" /><path
       class="st3"
       d="m 70.115485,140.91022 c -0.01615,0.0161 -0.05873,0 -0.09397,-0.0367 -0.0367,-0.0367 -0.05285,-0.0778 -0.0367,-0.091 0.01615,-0.0161 0.05873,0 0.09103,0.0367 0.03964,0.0367 0.05432,0.0778 0.03964,0.091 z"
       id="path176"
       style="stroke-width:0.014682;fill:#ffce54;fill-opacity:1" /><path
       class="st3"
       d="m 70.15219,140.24659 c 0,-0.0162 0.03817,-0.0338 0.08662,-0.0382 0.0088,0 0.02202,-0.0117 0.02202,-0.0117 0,0 0.01321,0.0117 0.01909,0.0117 0.04992,0.003 0.08809,0.0191 0.08809,0.0382 0,0.022 -0.04992,0.0382 -0.111583,0.0382 -0.05726,0.001 -0.104243,-0.0147 -0.104243,-0.0382 z"
       id="path178"
       style="stroke-width:0.014682;fill:#ffce54;fill-opacity:1" /><path
       class="st3"
       d="m 70.370953,141.03061 c 0,0.0162 -0.03817,0.0338 -0.08662,0.0382 -0.0088,0 -0.02202,0.0117 -0.02202,0.0117 0,0 -0.01321,-0.0117 -0.01909,-0.0117 -0.04992,-0.003 -0.08809,-0.0191 -0.08809,-0.0382 0,-0.022 0.04992,-0.0382 0.111583,-0.0382 0.05432,-0.001 0.104243,0.0147 0.104243,0.0382 z"
       id="path180"
       style="stroke-width:0.014682;fill:#ffce54;fill-opacity:1" /><path
       class="st3"
       d="m 69.865891,140.74725 c -0.01615,0 -0.03377,-0.0382 -0.03817,-0.0866 0,-0.009 -0.01175,-0.022 -0.01175,-0.022 0,0 0.01175,-0.0132 0.01175,-0.0191 0.0029,-0.0499 0.01909,-0.0881 0.03817,-0.0881 0.02202,0 0.03817,0.0499 0.03817,0.10864 0.0029,0.0602 -0.01615,0.10718 -0.03817,0.10718 z"
       id="path182"
       style="stroke-width:0.014682;fill:#ffce54;fill-opacity:1" /><path
       class="st3"
       d="m 70.654316,140.52996 c 0.01615,0 0.03377,0.0382 0.03817,0.0866 0,0.009 0.01175,0.022 0.01175,0.022 0,0 -0.01175,0.0132 -0.01175,0.0191 -0.0029,0.0499 -0.01909,0.0881 -0.03817,0.0881 -0.02202,0 -0.03817,-0.0499 -0.03817,-0.10864 -0.0015,-0.0602 0.01615,-0.10718 0.03817,-0.10718 z"
       id="path184"
       style="stroke-width:0.014682;fill:#ffce54;fill-opacity:1" /></g><style
     type="text/css"
     id="style2">  
	.st0{fill:#FCDD09;}
	.st1{fill:#0072BC;}
	.st2{fill:#DA121A;}
	.st3{fill:#FCDD09;stroke:#000000;}
	.st4{fill:none;stroke:#000000;}
	.st5{fill:#FFFFFF;stroke:#000000;}
	.st6{fill:#DA121A;stroke:#000000;}
	.st7{fill:#078930;stroke:#000000;}
</style></svg>
